<?xml version="1.0" encoding="UTF-8" standalone="no"?>
<svg
   version="1.1"
   width="70.76mm"
   height="128.5mm"
   viewBox="0 0 7076 12850"
   id="svg1"
   sodipodi:docname="Audrey_src.svg"
   inkscape:version="1.4.2 (f4327f4, 2025-05-13)"
   xml:space="preserve"
   xmlns:inkscape="http://www.inkscape.org/namespaces/inkscape"
   xmlns:sodipodi="http://sodipodi.sourceforge.net/DTD/sodipodi-0.dtd"
   xmlns="http://www.w3.org/2000/svg"
   xmlns:svg="http://www.w3.org/2000/svg"
   xmlns:rdf="http://www.w3.org/1999/02/22-rdf-syntax-ns#"
   xmlns:cc="http://creativecommons.org/ns#"
   xmlns:dc="http://purl.org/dc/elements/1.1/"><defs
     id="defs1"><rect
       x="82.110487"
       y="23.571149"
       width="197.11697"
       height="41.184756"
       id="rect1" /><rect
       x="82.110489"
       y="23.57115"
       width="223.30245"
       height="41.184757"
       id="rect1-4" /></defs><sodipodi:namedview
     id="namedview1"
     pagecolor="#ffffff"
     bordercolor="#000000"
     borderopacity="0.25"
     inkscape:showpageshadow="2"
     inkscape:pageopacity="0.0"
     inkscape:pagecheckerboard="0"
     inkscape:deskcolor="#d1d1d1"
     inkscape:document-units="mm"
     inkscape:zoom="10.919572"
     inkscape:cx="158.70585"
     inkscape:cy="143.09169"
     inkscape:window-width="3840"
     inkscape:window-height="2071"
     inkscape:window-x="-9"
     inkscape:window-y="-9"
     inkscape:window-maximized="1"
     inkscape:current-layer="Edge.Cuts"
     showguides="true"><sodipodi:guide
       position="3542.9998,-5.0003924"
       orientation="1,0"
       id="guide8"
       inkscape:locked="false" /><sodipodi:guide
       position="1771.4999,-10.000393"
       orientation="-1,0"
       id="guide9"
       inkscape:locked="false"
       inkscape:label=""
       inkscape:color="rgb(0,134,229)" /><sodipodi:guide
       position="5314.4998,-318.68"
       orientation="-1,0"
       id="guide10"
       inkscape:locked="false"
       inkscape:label=""
       inkscape:color="rgb(0,134,229)" /></sodipodi:namedview><title
     id="title1">Eurorack panel — 14HP × 128.5mm</title><g
     id="Edge.Cuts"
     inkscape:groupmode="layer"
     inkscape:label="Edge.Cuts"
     style="fill:#262b33;fill-rule:evenodd;stroke:#9aa4b3;stroke-width:10"><path
       d="M 5,5 H 7081 V 12855 H 5 Z"
       id="path1"
       sodipodi:nodetypes="ccccc"
       inkscape:label="Edge_without_holes"
       style="fill:#1a1a1a" /><path
       d="M 0,0 H 7076 V 12850 H 0 Z m 635,140 h 230 a 160,160 0 0 1 0,320 H 635 a 160,160 0 0 1 0,-320 z m 0,12250 h 230 a 160,160 0 0 1 0,320 H 635 a 160,160 0 0 1 0,-320 z M 6223,140 h 230 a 160,160 0 0 1 0,320 h -230 a 160,160 0 0 1 0,-320 z m 0,12250 h 230 a 160,160 0 0 1 0,320 h -230 a 160,160 0 0 1 0,-320 z"
       id="path2"
       style="display:none;fill:#1a1a1a"
       inkscape:label="Edge_with_holes" /></g><g
     id="B.SilkS"
     inkscape:groupmode="layer"
     inkscape:label="B.SilkS"
     sodipodi:insensitive="true" /><g
     id="B.Mask"
     inkscape:groupmode="layer"
     inkscape:label="B.Mask" /><g
     id="B.Cu"
     inkscape:groupmode="layer"
     inkscape:label="B.Cu" /><g
     id="F.Cu"
     inkscape:groupmode="layer"
     inkscape:label="F.Cu"><g
       id="g1-8-8"
       transform="matrix(1.043315,0,0,0.83915123,-348.97831,1017.7358)"
       inkscape:label="ReverbBox"
       style="display:inline"><path
         inkscape:label="10c corner brackets"
         d="m 633.70006,5863.7615 v -402.3969 h 852.93884 m 4477.9292,0 h 852.9394 v 402.3969 m 0,1307.7897 v 402.3969 h -852.9394 m -4477.9292,0 H 633.70006 v -402.3969"
         id="path26-2-2"
         style="fill:none;stroke:#c0894a;stroke-width:29.2924" /><path
         inkscape:label="10c corner brackets inner ticks"
         d="M 900.24347,5788.312 V 5587.1136 H 1326.713 m 4797.7815,0 h 426.4694 v 201.1984 m 0,1458.6886 v 201.1984 h -426.4694 m -4797.7815,0 H 900.24347 v -201.1984"
         stroke="#7c5629"
         stroke-width="0.25"
         id="path27-4-4"
         style="fill:none;stroke:#c0894a;stroke-width:29.2924" /></g><g
       id="g1-7-5-5"
       transform="matrix(1.0406743,0,0,1.0393517,-339.14011,-2450.3614)"
       inkscape:label="DelayBox"
       style="display:inline"><path
         inkscape:label="10c corner brackets"
         d="m 633.70006,5863.7615 v -402.3969 h 852.93884 m 4477.9292,0 h 852.9394 v 402.3969 m 0,1307.7897 v 402.3969 h -852.9394 m -4477.9292,0 H 633.70006 v -402.3969"
         id="path26-6-5-5"
         style="fill:none;stroke:#c0894a;stroke-width:29.2924" /><path
         inkscape:label="10c corner brackets inner ticks"
         d="M 900.24347,5788.312 V 5587.1136 H 1326.713 m 4797.7815,0 h 426.4694 v 201.1984 m 0,1458.6886 v 201.1984 h -426.4694 m -4797.7815,0 H 900.24347 v -201.1984"
         stroke="#7c5629"
         stroke-width="0.25"
         id="path27-1-1-1"
         style="fill:none;stroke:#c0894a;stroke-width:29.2924" /></g><text
       xml:space="preserve"
       style="font-style:normal;font-variant:normal;font-weight:600;font-stretch:normal;font-size:246.944px;font-family:'Ioskeley Mono';-inkscape-font-specification:'Ioskeley Mono Semi-Bold';text-align:center;writing-mode:lr-tb;direction:ltr;text-anchor:middle;display:inline;fill:#c0894a;fill-opacity:1;stroke:#bf984a;stroke-width:0;stroke-opacity:0"
       x="3536.2009"
       y="3350.4009"
       id="text2-18-2-7-7"
       inkscape:label="Delay"><tspan
         sodipodi:role="line"
         id="tspan2-9-1-11-1"
         style="font-style:normal;font-variant:normal;font-weight:600;font-stretch:normal;font-size:246.944px;font-family:'Ioskeley Mono';-inkscape-font-specification:'Ioskeley Mono Semi-Bold';text-align:center;text-anchor:middle;fill:#c0894a;fill-opacity:1;stroke-width:0"
         x="3536.2009"
         y="3350.4009">Delay</tspan></text><text
       xml:space="preserve"
       style="font-style:normal;font-variant:normal;font-weight:600;font-stretch:normal;font-size:246.944px;font-family:'Ioskeley Mono';-inkscape-font-specification:'Ioskeley Mono Semi-Bold';text-align:center;writing-mode:lr-tb;direction:ltr;text-anchor:middle;display:inline;fill:#c0894a;fill-opacity:1;stroke:#bf984a;stroke-width:0;stroke-opacity:0"
       x="3537.1533"
       y="7365.9912"
       id="text2-18-2-6-5-1"
       inkscape:label="Reverb"><tspan
         sodipodi:role="line"
         id="tspan2-9-1-1-2-5"
         style="font-style:normal;font-variant:normal;font-weight:600;font-stretch:normal;font-size:246.944px;font-family:'Ioskeley Mono';-inkscape-font-specification:'Ioskeley Mono Semi-Bold';text-align:center;text-anchor:middle;fill:#c0894a;fill-opacity:1;stroke-width:0"
         x="3537.1533"
         y="7365.9912">Reverb</tspan></text><g
       inkscape:label="20 - Flow field (vertical block)"
       style="display:inline;opacity:0.9;fill:none;stroke:#c0894a;stroke-width:0.3"
       id="g54-2"
       transform="matrix(44.675019,0,0,20.651036,-407.48451,-2053.6591)"><path
         d="m 16,178.312 c 0.962,0.061 3.846,0.264 5.769,0.364 1.923,0.101 3.846,0.188 5.769,0.242 1.924,0.055 3.847,0.077 5.77,0.085 1.923,0.008 3.846,-0.009 5.769,-0.039 1.923,-0.031 3.846,-0.07 5.769,-0.144 1.923,-0.073 3.846,-0.157 5.769,-0.295 1.923,-0.138 3.847,-0.311 5.77,-0.533 1.923,-0.223 3.846,-0.51 5.769,-0.802 1.923,-0.291 3.846,-0.654 5.769,-0.95 1.923,-0.296 3.846,-0.625 5.769,-0.826 1.923,-0.202 3.846,-0.363 5.77,-0.384 1.923,-0.02 3.846,0.074 5.769,0.26 1.923,0.186 3.846,0.52 5.769,0.856 1.923,0.336 3.846,0.79 5.769,1.159 1.923,0.37 3.846,0.775 5.769,1.057 1.924,0.281 3.847,0.507 5.77,0.633 1.923,0.126 3.846,0.141 5.769,0.123 1.923,-0.018 3.846,-0.142 5.769,-0.232 1.923,-0.09 3.846,-0.231 5.769,-0.309 1.923,-0.078 3.847,-0.14 5.77,-0.157 1.923,-0.017 3.846,0.02 5.769,0.058 1.923,0.037 3.846,0.121 5.769,0.169 1.923,0.047 3.846,0.103 5.769,0.115 1.923,0.012 3.846,-0.005 5.77,-0.043 1.923,-0.037 3.846,-0.116 5.769,-0.184 1.923,-0.068 4.807,-0.185 5.769,-0.223"
         id="path39-7" /><path
         d="m 16,182.938 c 0.962,0.057 3.846,0.248 5.769,0.342 1.923,0.093 3.846,0.166 5.769,0.218 1.924,0.052 3.847,0.08 5.77,0.094 1.923,0.014 3.846,0.018 5.769,-0.009 1.923,-0.028 3.846,-0.061 5.769,-0.157 1.923,-0.096 3.846,-0.219 5.769,-0.419 1.923,-0.2 3.847,-0.467 5.77,-0.781 1.923,-0.315 3.846,-0.725 5.769,-1.106 1.923,-0.381 3.846,-0.841 5.769,-1.182 1.923,-0.341 3.846,-0.691 5.769,-0.865 1.923,-0.175 3.846,-0.259 5.77,-0.183 1.923,0.076 3.846,0.319 5.769,0.638 1.923,0.32 3.846,0.817 5.769,1.278 1.923,0.461 3.846,1.036 5.769,1.487 1.923,0.451 3.846,0.907 5.769,1.22 1.924,0.313 3.847,0.532 5.77,0.656 1.923,0.123 3.846,0.113 5.769,0.085 1.923,-0.028 3.846,-0.162 5.769,-0.253 1.923,-0.091 3.846,-0.22 5.769,-0.291 1.923,-0.072 3.847,-0.119 5.77,-0.139 1.923,-0.02 3.846,0.007 5.769,0.017 1.923,0.009 3.846,0.045 5.769,0.042 1.923,-0.004 3.846,-0.021 5.769,-0.064 1.923,-0.044 3.846,-0.124 5.77,-0.199 1.923,-0.074 3.846,-0.176 5.769,-0.248 1.923,-0.071 4.807,-0.151 5.769,-0.181"
         id="path40-6" /><path
         d="m 16,187.562 c 0.962,0.048 3.846,0.207 5.769,0.284 1.923,0.078 3.846,0.135 5.769,0.184 1.924,0.049 3.847,0.089 5.77,0.111 1.923,0.023 3.846,0.05 5.769,0.022 1.923,-0.028 3.846,-0.063 5.769,-0.19 1.923,-0.127 3.846,-0.305 5.769,-0.575 1.923,-0.269 3.847,-0.64 5.77,-1.042 1.923,-0.402 3.846,-0.922 5.769,-1.369 1.923,-0.446 3.846,-0.964 5.769,-1.311 1.923,-0.347 3.846,-0.662 5.769,-0.768 1.923,-0.107 3.846,-0.068 5.77,0.129 1.923,0.198 3.846,0.606 5.769,1.057 1.923,0.452 3.846,1.092 5.769,1.652 1.923,0.561 3.846,1.212 5.769,1.711 1.923,0.499 3.846,0.964 5.769,1.282 1.924,0.318 3.847,0.512 5.77,0.626 1.923,0.115 3.846,0.088 5.769,0.06 1.923,-0.027 3.846,-0.148 5.769,-0.224 1.923,-0.077 3.846,-0.174 5.769,-0.235 1.923,-0.06 3.847,-0.094 5.77,-0.129 1.923,-0.036 3.846,-0.043 5.769,-0.084 1.923,-0.041 3.846,-0.085 5.769,-0.162 1.923,-0.076 3.846,-0.188 5.769,-0.297 1.923,-0.11 3.846,-0.254 5.77,-0.36 1.923,-0.107 3.846,-0.216 5.769,-0.278 1.923,-0.061 4.807,-0.078 5.769,-0.094"
         id="path41-1" /><path
         d="m 16,192.188 c 0.962,0.032 3.846,0.137 5.769,0.194 1.923,0.056 3.846,0.097 5.769,0.143 1.924,0.046 3.847,0.103 5.77,0.132 1.923,0.03 3.846,0.078 5.769,0.044 1.923,-0.034 3.846,-0.083 5.769,-0.248 1.923,-0.166 3.846,-0.411 5.769,-0.748 1.923,-0.337 3.847,-0.806 5.77,-1.275 1.923,-0.468 3.846,-1.065 5.769,-1.538 1.923,-0.472 3.846,-0.993 5.769,-1.298 1.923,-0.305 3.846,-0.529 5.769,-0.532 1.923,-0.003 3.846,0.188 5.77,0.515 1.923,0.328 3.846,0.888 5.769,1.448 1.923,0.56 3.846,1.295 5.769,1.913 1.923,0.617 3.846,1.287 5.769,1.791 1.923,0.505 3.846,0.937 5.769,1.238 1.924,0.3 3.847,0.461 5.77,0.567 1.923,0.107 3.846,0.084 5.769,0.073 1.923,-0.011 3.846,-0.089 5.769,-0.138 1.923,-0.049 3.846,-0.102 5.769,-0.153 1.923,-0.052 3.847,-0.085 5.77,-0.154 1.923,-0.068 3.846,-0.14 5.769,-0.256 1.923,-0.116 3.846,-0.271 5.769,-0.438 1.923,-0.166 3.846,-0.384 5.769,-0.561 1.923,-0.177 3.846,-0.375 5.77,-0.502 1.923,-0.126 3.846,-0.22 5.769,-0.256 1.923,-0.036 4.807,0.032 5.769,0.039"
         id="path42-4" /><path
         d="m 16,196.812 c 0.962,0.014 3.846,0.051 5.769,0.081 1.923,0.03 3.846,0.06 5.769,0.102 1.924,0.042 3.847,0.117 5.77,0.15 1.923,0.033 3.846,0.094 5.769,0.048 1.923,-0.047 3.846,-0.122 5.769,-0.328 1.923,-0.206 3.846,-0.519 5.769,-0.91 1.923,-0.39 3.847,-0.932 5.77,-1.432 1.923,-0.5 3.846,-1.119 5.769,-1.568 1.923,-0.448 3.846,-0.905 5.769,-1.122 1.923,-0.218 3.846,-0.304 5.769,-0.182 1.923,0.122 3.846,0.472 5.77,0.913 1.923,0.442 3.846,1.114 5.769,1.738 1.923,0.623 3.846,1.385 5.769,2.005 1.923,0.619 3.846,1.242 5.769,1.712 1.923,0.469 3.846,0.835 5.769,1.105 1.924,0.269 3.847,0.402 5.77,0.511 1.923,0.108 3.846,0.118 5.769,0.142 1.923,0.023 3.846,0.011 5.769,-10e-4 1.923,-0.012 3.846,-0.021 5.769,-0.072 1.923,-0.05 3.847,-0.109 5.77,-0.232 1.923,-0.123 3.846,-0.295 5.769,-0.506 1.923,-0.212 3.846,-0.5 5.769,-0.764 1.923,-0.265 3.846,-0.586 5.769,-0.822 1.923,-0.237 3.846,-0.467 5.77,-0.596 1.923,-0.128 3.846,-0.182 5.769,-0.177 1.923,0.004 4.807,0.171 5.769,0.205"
         id="path43-2" /><path
         d="m 16,201.438 c 0.962,-0.008 3.846,-0.049 5.769,-0.047 1.923,0.002 3.846,0.023 5.769,0.06 1.924,0.036 3.847,0.127 5.77,0.158 1.923,0.031 3.846,0.093 5.769,0.029 1.923,-0.065 3.846,-0.175 5.769,-0.415 1.923,-0.24 3.846,-0.609 5.769,-1.024 1.923,-0.416 3.847,-0.986 5.77,-1.469 1.923,-0.482 3.846,-1.056 5.769,-1.426 1.923,-0.37 3.846,-0.701 5.769,-0.794 1.923,-0.093 3.846,-0.013 5.769,0.234 1.923,0.247 3.846,0.73 5.77,1.248 1.923,0.518 3.846,1.233 5.769,1.859 1.923,0.626 3.846,1.333 5.769,1.896 1.923,0.563 3.846,1.082 5.769,1.482 1.923,0.4 3.846,0.685 5.769,0.919 1.924,0.234 3.847,0.36 5.77,0.486 1.923,0.127 3.846,0.201 5.769,0.275 1.923,0.074 3.846,0.144 5.769,0.169 1.923,0.025 3.846,0.047 5.769,-0.02 1.923,-0.067 3.847,-0.182 5.77,-0.382 1.923,-0.201 3.846,-0.5 5.769,-0.822 1.923,-0.321 3.846,-0.748 5.769,-1.106 1.923,-0.358 3.846,-0.765 5.769,-1.042 1.923,-0.277 3.846,-0.509 5.77,-0.619 1.923,-0.11 3.846,-0.1 5.769,-0.042 1.923,0.059 4.807,0.327 5.769,0.393"
         id="path44-3" /><path
         d="m 16,206.062 c 0.962,-0.029 3.846,-0.149 5.769,-0.176 1.923,-0.027 3.846,-0.011 5.769,0.016 1.924,0.028 3.847,0.126 5.77,0.149 1.923,0.023 3.846,0.073 5.769,-0.01 1.923,-0.082 3.846,-0.229 5.769,-0.486 1.923,-0.256 3.846,-0.651 5.769,-1.051 1.923,-0.399 3.847,-0.937 5.77,-1.346 1.923,-0.409 3.846,-0.866 5.769,-1.109 1.923,-0.242 3.846,-0.396 5.769,-0.346 1.923,0.049 3.846,0.295 5.769,0.643 1.923,0.348 3.846,0.91 5.77,1.445 1.923,0.535 3.846,1.207 5.769,1.765 1.923,0.558 3.846,1.131 5.769,1.584 1.923,0.453 3.846,0.825 5.769,1.134 1.923,0.309 3.846,0.515 5.769,0.721 1.924,0.207 3.847,0.354 5.77,0.517 1.923,0.163 3.846,0.327 5.769,0.46 1.923,0.133 3.846,0.286 5.769,0.338 1.923,0.053 3.846,0.081 5.769,-0.024 1.923,-0.105 3.847,-0.31 5.77,-0.606 1.923,-0.296 3.846,-0.74 5.769,-1.172 1.923,-0.432 3.846,-0.986 5.769,-1.42 1.923,-0.434 3.846,-0.893 5.769,-1.183 1.923,-0.291 3.846,-0.49 5.77,-0.56 1.923,-0.07 3.846,0.02 5.769,0.14 1.923,0.119 4.807,0.481 5.769,0.577"
         id="path45-2" /><path
         d="m 16,210.688 c 0.962,-0.051 3.846,-0.245 5.769,-0.301 1.923,-0.055 3.846,-0.045 5.769,-0.031 1.924,0.015 3.847,0.109 5.77,0.119 1.923,0.01 3.846,0.037 5.769,-0.057 1.923,-0.095 3.846,-0.267 5.769,-0.511 1.923,-0.244 3.846,-0.619 5.769,-0.953 1.923,-0.334 3.847,-0.768 5.77,-1.049 1.923,-0.28 3.846,-0.554 5.769,-0.633 1.923,-0.08 3.846,-0.031 5.769,0.157 1.923,0.187 3.846,0.566 5.769,0.967 1.923,0.402 3.846,0.962 5.77,1.442 1.923,0.48 3.846,1.015 5.769,1.437 1.923,0.422 3.846,0.792 5.769,1.094 1.923,0.303 3.846,0.507 5.769,0.719 1.923,0.212 3.846,0.36 5.769,0.554 1.924,0.194 3.847,0.396 5.77,0.609 1.923,0.214 3.846,0.483 5.769,0.673 1.923,0.191 3.846,0.41 5.769,0.471 1.923,0.061 3.846,0.06 5.769,-0.105 1.923,-0.165 3.847,-0.486 5.77,-0.887 1.923,-0.4 3.846,-0.986 5.769,-1.514 1.923,-0.529 3.846,-1.177 5.769,-1.656 1.923,-0.478 3.846,-0.944 5.769,-1.217 1.923,-0.272 3.846,-0.405 5.77,-0.417 1.923,-0.012 3.846,0.166 5.769,0.348 1.923,0.181 4.807,0.617 5.769,0.741"
         id="path46-2" /><path
         d="m 16,215.312 c 0.962,-0.063 3.846,-0.305 5.769,-0.382 1.923,-0.077 3.846,-0.077 5.769,-0.079 1.924,-0.002 3.847,0.069 5.77,0.065 1.923,-0.004 3.846,-0.003 5.769,-0.089 1.923,-0.085 3.846,-0.245 5.769,-0.426 1.923,-0.181 3.846,-0.459 5.769,-0.659 1.923,-0.2 3.847,-0.444 5.77,-0.542 1.923,-0.098 3.846,-0.139 5.769,-0.047 1.923,0.091 3.846,0.32 5.769,0.596 1.923,0.276 3.846,0.694 5.769,1.057 1.923,0.363 3.846,0.795 5.77,1.12 1.923,0.325 3.846,0.617 5.769,0.83 1.923,0.214 3.846,0.33 5.769,0.451 1.923,0.121 3.846,0.161 5.769,0.277 1.923,0.115 3.846,0.229 5.769,0.415 1.924,0.186 3.847,0.45 5.77,0.703 1.923,0.253 3.846,0.597 5.769,0.816 1.923,0.219 3.846,0.455 5.769,0.496 1.923,0.042 3.846,-0.019 5.769,-0.246 1.923,-0.226 3.847,-0.646 5.77,-1.11 1.923,-0.465 3.846,-1.122 5.769,-1.676 1.923,-0.554 3.846,-1.199 5.769,-1.649 1.923,-0.45 3.846,-0.844 5.769,-1.051 1.923,-0.207 3.846,-0.245 5.77,-0.191 1.923,0.055 3.846,0.298 5.769,0.518 1.923,0.22 4.807,0.67 5.769,0.803"
         id="path47-1" /><path
         d="m 16,219.938 c 0.962,-0.068 3.846,-0.32 5.769,-0.408 1.923,-0.088 3.846,-0.1 5.769,-0.118 1.924,-0.018 3.847,0.021 5.77,0.009 1.923,-0.012 3.846,-0.027 5.769,-0.081 1.923,-0.054 3.846,-0.16 5.769,-0.241 1.923,-0.082 3.846,-0.209 5.769,-0.247 1.923,-0.038 3.847,-0.06 5.77,0.021 1.923,0.08 3.846,0.247 5.769,0.462 1.923,0.215 3.846,0.542 5.769,0.826 1.923,0.284 3.846,0.635 5.769,0.879 1.923,0.243 3.846,0.463 5.77,0.583 1.923,0.12 3.846,0.139 5.769,0.138 1.923,-0.002 3.846,-0.111 5.769,-0.147 1.923,-0.035 3.846,-0.108 5.769,-0.064 1.923,0.045 3.846,0.152 5.769,0.331 1.924,0.18 3.847,0.484 5.77,0.747 1.923,0.262 3.846,0.623 5.769,0.829 1.923,0.206 3.846,0.403 5.769,0.406 1.923,0.002 3.846,-0.129 5.769,-0.393 1.923,-0.264 3.847,-0.728 5.77,-1.191 1.923,-0.463 3.846,-1.091 5.769,-1.589 1.923,-0.498 3.846,-1.041 5.769,-1.398 1.923,-0.356 3.846,-0.623 5.769,-0.739 1.923,-0.117 3.846,-0.065 5.77,0.041 1.923,0.106 3.846,0.37 5.769,0.594 1.923,0.224 4.807,0.625 5.769,0.75"
         id="path48-6" /><path
         d="m 16,224.562 c 0.962,-0.067 3.846,-0.312 5.769,-0.404 1.923,-0.092 3.846,-0.12 5.769,-0.149 1.924,-0.03 3.847,-0.02 5.77,-0.03 1.923,-0.01 3.846,-0.025 5.769,-0.033 1.923,-0.007 3.846,-0.038 5.769,-0.011 1.923,0.026 3.846,0.057 5.769,0.169 1.923,0.112 3.847,0.283 5.77,0.501 1.923,0.218 3.846,0.529 5.769,0.806 1.923,0.278 3.846,0.624 5.769,0.859 1.923,0.236 3.846,0.46 5.769,0.555 1.923,0.096 3.846,0.091 5.77,0.019 1.923,-0.073 3.846,-0.284 5.769,-0.456 1.923,-0.172 3.846,-0.438 5.769,-0.577 1.923,-0.14 3.846,-0.267 5.769,-0.26 1.923,0.008 3.846,0.129 5.769,0.305 1.924,0.175 3.847,0.498 5.77,0.749 1.923,0.251 3.846,0.588 5.769,0.757 1.923,0.17 3.846,0.302 5.769,0.26 1.923,-0.041 3.846,-0.232 5.769,-0.512 1.923,-0.279 3.847,-0.742 5.77,-1.165 1.923,-0.423 3.846,-0.968 5.769,-1.373 1.923,-0.406 3.846,-0.813 5.769,-1.059 1.923,-0.246 3.846,-0.384 5.769,-0.417 1.923,-0.032 3.846,0.086 5.77,0.223 1.923,0.137 3.846,0.391 5.769,0.598 1.923,0.207 4.807,0.538 5.769,0.645"
         id="path49-8" /><path
         d="m 16,229.188 c 0.962,-0.064 3.846,-0.289 5.769,-0.381 1.923,-0.092 3.846,-0.134 5.769,-0.17 1.924,-0.036 3.847,-0.046 5.77,-0.045 1.923,0.002 3.846,0.005 5.769,0.053 1.923,0.048 3.846,0.106 5.769,0.235 1.923,0.129 3.846,0.307 5.769,0.539 1.923,0.232 3.847,0.549 5.77,0.853 1.923,0.303 3.846,0.685 5.769,0.968 1.923,0.282 3.846,0.578 5.769,0.725 1.923,0.147 3.846,0.214 5.769,0.158 1.923,-0.056 3.846,-0.262 5.77,-0.494 1.923,-0.231 3.846,-0.608 5.769,-0.896 1.923,-0.288 3.846,-0.636 5.769,-0.831 1.923,-0.195 3.846,-0.33 5.769,-0.337 1.923,-0.007 3.846,0.131 5.769,0.296 1.924,0.165 3.847,0.475 5.77,0.693 1.923,0.218 3.846,0.496 5.769,0.615 1.923,0.118 3.846,0.176 5.769,0.097 1.923,-0.078 3.846,-0.303 5.769,-0.57 1.923,-0.267 3.847,-0.682 5.77,-1.03 1.923,-0.348 3.846,-0.768 5.769,-1.057 1.923,-0.289 3.846,-0.545 5.769,-0.679 1.923,-0.133 3.846,-0.159 5.769,-0.124 1.923,0.035 3.846,0.188 5.77,0.333 1.923,0.145 3.846,0.363 5.769,0.538 1.923,0.175 4.807,0.425 5.769,0.511"
         id="path50-5" /><path
         d="m 16,233.812 c 0.962,-0.057 3.846,-0.256 5.769,-0.343 1.923,-0.086 3.846,-0.141 5.769,-0.176 1.924,-0.034 3.847,-0.054 5.77,-0.032 1.923,0.021 3.846,0.057 5.769,0.161 1.923,0.105 3.846,0.251 5.769,0.465 1.923,0.215 3.846,0.509 5.769,0.821 1.923,0.312 3.847,0.716 5.77,1.051 1.923,0.335 3.846,0.719 5.769,0.959 1.923,0.239 3.846,0.439 5.769,0.479 1.923,0.04 3.846,-0.052 5.769,-0.24 1.923,-0.189 3.846,-0.548 5.77,-0.889 1.923,-0.341 3.846,-0.811 5.769,-1.158 1.923,-0.347 3.846,-0.715 5.769,-0.926 1.923,-0.21 3.846,-0.325 5.769,-0.336 1.923,-0.01 3.846,0.133 5.769,0.275 1.924,0.142 3.847,0.409 5.77,0.577 1.923,0.167 3.846,0.365 5.769,0.429 1.923,0.064 3.846,0.054 5.769,-0.045 1.923,-0.099 3.846,-0.324 5.769,-0.548 1.923,-0.225 3.847,-0.551 5.77,-0.798 1.923,-0.247 3.846,-0.519 5.769,-0.684 1.923,-0.165 3.846,-0.274 5.769,-0.308 1.923,-0.034 3.846,0.027 5.769,0.106 1.923,0.079 3.846,0.236 5.77,0.369 1.923,0.133 3.846,0.296 5.769,0.428 1.923,0.132 4.807,0.303 5.769,0.363"
         id="path51-7" /><path
         d="m 16,238.438 c 0.962,-0.05 3.846,-0.22 5.769,-0.297 1.923,-0.078 3.846,-0.139 5.769,-0.166 1.924,-0.028 3.847,-0.044 5.77,0.002 1.923,0.046 3.846,0.122 5.769,0.276 1.923,0.153 3.846,0.374 5.769,0.647 1.923,0.272 3.846,0.641 5.769,0.987 1.923,0.347 3.847,0.775 5.77,1.093 1.923,0.318 3.846,0.649 5.769,0.816 1.923,0.166 3.846,0.248 5.769,0.183 1.923,-0.065 3.846,-0.29 5.769,-0.574 1.923,-0.284 3.846,-0.735 5.77,-1.131 1.923,-0.396 3.846,-0.888 5.769,-1.245 1.923,-0.357 3.846,-0.697 5.769,-0.895 1.923,-0.199 3.846,-0.285 5.769,-0.298 1.923,-0.012 3.846,0.116 5.769,0.222 1.924,0.106 3.847,0.305 5.77,0.413 1.923,0.108 3.846,0.22 5.769,0.236 1.923,0.017 3.846,-0.04 5.769,-0.136 1.923,-0.097 3.846,-0.287 5.769,-0.444 1.923,-0.158 3.847,-0.368 5.77,-0.502 1.923,-0.134 3.846,-0.253 5.769,-0.302 1.923,-0.049 3.846,-0.034 5.769,0.01 1.923,0.044 3.846,0.156 5.769,0.255 1.923,0.098 3.846,0.232 5.77,0.337 1.923,0.105 3.846,0.206 5.769,0.292 1.923,0.085 4.807,0.184 5.769,0.221"
         id="path52-6" /><path
         d="m 16,243.062 c 0.962,-0.04 3.846,-0.181 5.769,-0.245 1.923,-0.065 3.846,-0.126 5.769,-0.141 1.924,-0.015 3.847,-0.019 5.77,0.052 1.923,0.071 3.846,0.185 5.769,0.374 1.923,0.188 3.846,0.459 5.769,0.757 1.923,0.298 3.846,0.692 5.769,1.03 1.923,0.339 3.847,0.736 5.77,1.001 1.923,0.265 3.846,0.507 5.769,0.588 1.923,0.082 3.846,0.05 5.769,-0.1 1.923,-0.15 3.846,-0.463 5.769,-0.797 1.923,-0.335 3.846,-0.812 5.77,-1.212 1.923,-0.399 3.846,-0.857 5.769,-1.186 1.923,-0.328 3.846,-0.613 5.769,-0.786 1.923,-0.174 3.846,-0.235 5.769,-0.254 1.923,-0.02 3.846,0.074 5.769,0.135 1.924,0.06 3.847,0.179 5.77,0.229 1.923,0.05 3.846,0.085 5.769,0.069 1.923,-0.015 3.846,-0.089 5.769,-0.162 1.923,-0.072 3.846,-0.197 5.769,-0.273 1.923,-0.076 3.847,-0.158 5.77,-0.182 1.923,-0.024 3.846,-0.009 5.769,0.039 1.923,0.047 3.846,0.15 5.769,0.244 1.923,0.094 3.846,0.223 5.769,0.319 1.923,0.095 3.846,0.188 5.77,0.256 1.923,0.067 3.846,0.108 5.769,0.149 1.923,0.041 4.807,0.08 5.769,0.096"
         id="path53-1" /><path
         d="m 16,247.688 c 0.962,-0.033 3.846,-0.144 5.769,-0.193 1.923,-0.049 3.846,-0.104 5.769,-0.104 1.924,0.001 3.847,0.015 5.77,0.105 1.923,0.091 3.846,0.234 5.769,0.437 1.923,0.203 3.846,0.492 5.769,0.782 1.923,0.291 3.846,0.664 5.769,0.959 1.923,0.296 3.847,0.623 5.77,0.814 1.923,0.191 3.846,0.331 5.769,0.333 1.923,0.002 3.846,-0.12 5.769,-0.322 1.923,-0.202 3.846,-0.55 5.769,-0.89 1.923,-0.339 3.846,-0.785 5.77,-1.147 1.923,-0.362 3.846,-0.747 5.769,-1.024 1.923,-0.278 3.846,-0.498 5.769,-0.643 1.923,-0.145 3.846,-0.193 5.769,-0.227 1.923,-0.033 3.846,0.012 5.769,0.026 1.924,0.013 3.847,0.054 5.77,0.056 1.923,0.001 3.846,-0.018 5.769,-0.046 1.923,-0.028 3.846,-0.091 5.769,-0.122 1.923,-0.032 3.846,-0.074 5.769,-0.066 1.923,0.008 3.847,0.043 5.77,0.112 1.923,0.069 3.846,0.189 5.769,0.302 1.923,0.114 3.846,0.266 5.769,0.381 1.923,0.115 3.846,0.232 5.769,0.308 1.923,0.076 3.846,0.12 5.77,0.149 1.923,0.028 3.846,0.017 5.769,0.02 1.923,0.004 4.807,0 5.769,0"
         id="path54-8" /></g><rect
       style="display:inline;fill:#c0894a;fill-opacity:1;stroke:#bf984a;stroke-width:0;stroke-opacity:0"
       id="rect10-9"
       width="2270.3689"
       height="1024.9371"
       x="4359.8403"
       y="10260.716"
       rx="250"
       inkscape:label="output_box" /></g><g
     id="F.Mask"
     inkscape:groupmode="layer"
     inkscape:label="F.Mask"
     style="display:inline"><g
       id="g1-8"
       transform="matrix(1.0431593,0,0,0.83898597,-348.39833,1018.9874)"
       inkscape:label="ReverbBox"><path
         inkscape:label="10c corner brackets"
         d="m 633.70006,5863.7615 v -402.3969 h 852.93884 m 4477.9292,0 h 852.9394 v 402.3969 m 0,1307.7897 v 402.3969 h -852.9394 m -4477.9292,0 H 633.70006 v -402.3969"
         id="path26-2"
         style="fill:none;stroke:#c0894a;stroke-width:29.2924" /><path
         inkscape:label="10c corner brackets inner ticks"
         d="M 900.24347,5788.312 V 5587.1136 H 1326.713 m 4797.7815,0 h 426.4694 v 201.1984 m 0,1458.6886 v 201.1984 h -426.4694 m -4797.7815,0 H 900.24347 v -201.1984"
         stroke="#7c5629"
         stroke-width="0.25"
         id="path27-4"
         style="fill:none;stroke:#c0894a;stroke-width:29.2924" /></g><g
       id="g1-7-5"
       transform="matrix(1.0403918,0,0,1.0389881,-338.08762,-2448.3756)"
       inkscape:label="DelayBox"><path
         inkscape:label="10c corner brackets"
         d="m 633.70006,5863.7615 v -402.3969 h 852.93884 m 4477.9292,0 h 852.9394 v 402.3969 m 0,1307.7897 v 402.3969 h -852.9394 m -4477.9292,0 H 633.70006 v -402.3969"
         id="path26-6-5"
         style="fill:none;stroke:#c0894a;stroke-width:29.2924" /><path
         inkscape:label="10c corner brackets inner ticks"
         d="M 900.24347,5788.312 V 5587.1136 H 1326.713 m 4797.7815,0 h 426.4694 v 201.1984 m 0,1458.6886 v 201.1984 h -426.4694 m -4797.7815,0 H 900.24347 v -201.1984"
         stroke="#7c5629"
         stroke-width="0.25"
         id="path27-1-1"
         style="fill:none;stroke:#c0894a;stroke-width:29.2924" /></g><text
       xml:space="preserve"
       style="font-style:normal;font-variant:normal;font-weight:600;font-stretch:normal;font-size:246.944px;font-family:'Ioskeley Mono';-inkscape-font-specification:'Ioskeley Mono Semi-Bold';text-align:center;writing-mode:lr-tb;direction:ltr;text-anchor:middle;fill:#c0894a;fill-opacity:1;stroke:#bf984a;stroke-width:0;stroke-opacity:0"
       x="3536.2009"
       y="3350.4011"
       id="text2-18-2-7"
       inkscape:label="Delay"><tspan
         sodipodi:role="line"
         id="tspan2-9-1-11"
         style="font-style:normal;font-variant:normal;font-weight:600;font-stretch:normal;font-size:246.944px;font-family:'Ioskeley Mono';-inkscape-font-specification:'Ioskeley Mono Semi-Bold';text-align:center;text-anchor:middle;fill:#c0894a;fill-opacity:1;stroke-width:0"
         x="3536.2009"
         y="3350.4011">Delay</tspan></text><text
       xml:space="preserve"
       style="font-style:normal;font-variant:normal;font-weight:600;font-stretch:normal;font-size:246.944px;font-family:'Ioskeley Mono';-inkscape-font-specification:'Ioskeley Mono Semi-Bold';text-align:center;writing-mode:lr-tb;direction:ltr;text-anchor:middle;fill:#c0894a;fill-opacity:1;stroke:#bf984a;stroke-width:0;stroke-opacity:0"
       x="3537.1533"
       y="7365.9907"
       id="text2-18-2-6-5"
       inkscape:label="Reverb"><tspan
         sodipodi:role="line"
         id="tspan2-9-1-1-2"
         style="font-style:normal;font-variant:normal;font-weight:600;font-stretch:normal;font-size:246.944px;font-family:'Ioskeley Mono';-inkscape-font-specification:'Ioskeley Mono Semi-Bold';text-align:center;text-anchor:middle;fill:#c0894a;fill-opacity:1;stroke-width:0"
         x="3537.1533"
         y="7365.9907">Reverb</tspan></text><g
       inkscape:label="20 - Flow field (vertical block)"
       style="opacity:0.9;fill:none;stroke:#c0894a;stroke-width:0.3"
       id="g54"
       transform="matrix(44.675019,0,0,20.651036,-407.48451,-2053.6591)"><path
         d="m 16,178.312 c 0.962,0.061 3.846,0.264 5.769,0.364 1.923,0.101 3.846,0.188 5.769,0.242 1.924,0.055 3.847,0.077 5.77,0.085 1.923,0.008 3.846,-0.009 5.769,-0.039 1.923,-0.031 3.846,-0.07 5.769,-0.144 1.923,-0.073 3.846,-0.157 5.769,-0.295 1.923,-0.138 3.847,-0.311 5.77,-0.533 1.923,-0.223 3.846,-0.51 5.769,-0.802 1.923,-0.291 3.846,-0.654 5.769,-0.95 1.923,-0.296 3.846,-0.625 5.769,-0.826 1.923,-0.202 3.846,-0.363 5.77,-0.384 1.923,-0.02 3.846,0.074 5.769,0.26 1.923,0.186 3.846,0.52 5.769,0.856 1.923,0.336 3.846,0.79 5.769,1.159 1.923,0.37 3.846,0.775 5.769,1.057 1.924,0.281 3.847,0.507 5.77,0.633 1.923,0.126 3.846,0.141 5.769,0.123 1.923,-0.018 3.846,-0.142 5.769,-0.232 1.923,-0.09 3.846,-0.231 5.769,-0.309 1.923,-0.078 3.847,-0.14 5.77,-0.157 1.923,-0.017 3.846,0.02 5.769,0.058 1.923,0.037 3.846,0.121 5.769,0.169 1.923,0.047 3.846,0.103 5.769,0.115 1.923,0.012 3.846,-0.005 5.77,-0.043 1.923,-0.037 3.846,-0.116 5.769,-0.184 1.923,-0.068 4.807,-0.185 5.769,-0.223"
         id="path39" /><path
         d="m 16,182.938 c 0.962,0.057 3.846,0.248 5.769,0.342 1.923,0.093 3.846,0.166 5.769,0.218 1.924,0.052 3.847,0.08 5.77,0.094 1.923,0.014 3.846,0.018 5.769,-0.009 1.923,-0.028 3.846,-0.061 5.769,-0.157 1.923,-0.096 3.846,-0.219 5.769,-0.419 1.923,-0.2 3.847,-0.467 5.77,-0.781 1.923,-0.315 3.846,-0.725 5.769,-1.106 1.923,-0.381 3.846,-0.841 5.769,-1.182 1.923,-0.341 3.846,-0.691 5.769,-0.865 1.923,-0.175 3.846,-0.259 5.77,-0.183 1.923,0.076 3.846,0.319 5.769,0.638 1.923,0.32 3.846,0.817 5.769,1.278 1.923,0.461 3.846,1.036 5.769,1.487 1.923,0.451 3.846,0.907 5.769,1.22 1.924,0.313 3.847,0.532 5.77,0.656 1.923,0.123 3.846,0.113 5.769,0.085 1.923,-0.028 3.846,-0.162 5.769,-0.253 1.923,-0.091 3.846,-0.22 5.769,-0.291 1.923,-0.072 3.847,-0.119 5.77,-0.139 1.923,-0.02 3.846,0.007 5.769,0.017 1.923,0.009 3.846,0.045 5.769,0.042 1.923,-0.004 3.846,-0.021 5.769,-0.064 1.923,-0.044 3.846,-0.124 5.77,-0.199 1.923,-0.074 3.846,-0.176 5.769,-0.248 1.923,-0.071 4.807,-0.151 5.769,-0.181"
         id="path40" /><path
         d="m 16,187.562 c 0.962,0.048 3.846,0.207 5.769,0.284 1.923,0.078 3.846,0.135 5.769,0.184 1.924,0.049 3.847,0.089 5.77,0.111 1.923,0.023 3.846,0.05 5.769,0.022 1.923,-0.028 3.846,-0.063 5.769,-0.19 1.923,-0.127 3.846,-0.305 5.769,-0.575 1.923,-0.269 3.847,-0.64 5.77,-1.042 1.923,-0.402 3.846,-0.922 5.769,-1.369 1.923,-0.446 3.846,-0.964 5.769,-1.311 1.923,-0.347 3.846,-0.662 5.769,-0.768 1.923,-0.107 3.846,-0.068 5.77,0.129 1.923,0.198 3.846,0.606 5.769,1.057 1.923,0.452 3.846,1.092 5.769,1.652 1.923,0.561 3.846,1.212 5.769,1.711 1.923,0.499 3.846,0.964 5.769,1.282 1.924,0.318 3.847,0.512 5.77,0.626 1.923,0.115 3.846,0.088 5.769,0.06 1.923,-0.027 3.846,-0.148 5.769,-0.224 1.923,-0.077 3.846,-0.174 5.769,-0.235 1.923,-0.06 3.847,-0.094 5.77,-0.129 1.923,-0.036 3.846,-0.043 5.769,-0.084 1.923,-0.041 3.846,-0.085 5.769,-0.162 1.923,-0.076 3.846,-0.188 5.769,-0.297 1.923,-0.11 3.846,-0.254 5.77,-0.36 1.923,-0.107 3.846,-0.216 5.769,-0.278 1.923,-0.061 4.807,-0.078 5.769,-0.094"
         id="path41" /><path
         d="m 16,192.188 c 0.962,0.032 3.846,0.137 5.769,0.194 1.923,0.056 3.846,0.097 5.769,0.143 1.924,0.046 3.847,0.103 5.77,0.132 1.923,0.03 3.846,0.078 5.769,0.044 1.923,-0.034 3.846,-0.083 5.769,-0.248 1.923,-0.166 3.846,-0.411 5.769,-0.748 1.923,-0.337 3.847,-0.806 5.77,-1.275 1.923,-0.468 3.846,-1.065 5.769,-1.538 1.923,-0.472 3.846,-0.993 5.769,-1.298 1.923,-0.305 3.846,-0.529 5.769,-0.532 1.923,-0.003 3.846,0.188 5.77,0.515 1.923,0.328 3.846,0.888 5.769,1.448 1.923,0.56 3.846,1.295 5.769,1.913 1.923,0.617 3.846,1.287 5.769,1.791 1.923,0.505 3.846,0.937 5.769,1.238 1.924,0.3 3.847,0.461 5.77,0.567 1.923,0.107 3.846,0.084 5.769,0.073 1.923,-0.011 3.846,-0.089 5.769,-0.138 1.923,-0.049 3.846,-0.102 5.769,-0.153 1.923,-0.052 3.847,-0.085 5.77,-0.154 1.923,-0.068 3.846,-0.14 5.769,-0.256 1.923,-0.116 3.846,-0.271 5.769,-0.438 1.923,-0.166 3.846,-0.384 5.769,-0.561 1.923,-0.177 3.846,-0.375 5.77,-0.502 1.923,-0.126 3.846,-0.22 5.769,-0.256 1.923,-0.036 4.807,0.032 5.769,0.039"
         id="path42" /><path
         d="m 16,196.812 c 0.962,0.014 3.846,0.051 5.769,0.081 1.923,0.03 3.846,0.06 5.769,0.102 1.924,0.042 3.847,0.117 5.77,0.15 1.923,0.033 3.846,0.094 5.769,0.048 1.923,-0.047 3.846,-0.122 5.769,-0.328 1.923,-0.206 3.846,-0.519 5.769,-0.91 1.923,-0.39 3.847,-0.932 5.77,-1.432 1.923,-0.5 3.846,-1.119 5.769,-1.568 1.923,-0.448 3.846,-0.905 5.769,-1.122 1.923,-0.218 3.846,-0.304 5.769,-0.182 1.923,0.122 3.846,0.472 5.77,0.913 1.923,0.442 3.846,1.114 5.769,1.738 1.923,0.623 3.846,1.385 5.769,2.005 1.923,0.619 3.846,1.242 5.769,1.712 1.923,0.469 3.846,0.835 5.769,1.105 1.924,0.269 3.847,0.402 5.77,0.511 1.923,0.108 3.846,0.118 5.769,0.142 1.923,0.023 3.846,0.011 5.769,-10e-4 1.923,-0.012 3.846,-0.021 5.769,-0.072 1.923,-0.05 3.847,-0.109 5.77,-0.232 1.923,-0.123 3.846,-0.295 5.769,-0.506 1.923,-0.212 3.846,-0.5 5.769,-0.764 1.923,-0.265 3.846,-0.586 5.769,-0.822 1.923,-0.237 3.846,-0.467 5.77,-0.596 1.923,-0.128 3.846,-0.182 5.769,-0.177 1.923,0.004 4.807,0.171 5.769,0.205"
         id="path43" /><path
         d="m 16,201.438 c 0.962,-0.008 3.846,-0.049 5.769,-0.047 1.923,0.002 3.846,0.023 5.769,0.06 1.924,0.036 3.847,0.127 5.77,0.158 1.923,0.031 3.846,0.093 5.769,0.029 1.923,-0.065 3.846,-0.175 5.769,-0.415 1.923,-0.24 3.846,-0.609 5.769,-1.024 1.923,-0.416 3.847,-0.986 5.77,-1.469 1.923,-0.482 3.846,-1.056 5.769,-1.426 1.923,-0.37 3.846,-0.701 5.769,-0.794 1.923,-0.093 3.846,-0.013 5.769,0.234 1.923,0.247 3.846,0.73 5.77,1.248 1.923,0.518 3.846,1.233 5.769,1.859 1.923,0.626 3.846,1.333 5.769,1.896 1.923,0.563 3.846,1.082 5.769,1.482 1.923,0.4 3.846,0.685 5.769,0.919 1.924,0.234 3.847,0.36 5.77,0.486 1.923,0.127 3.846,0.201 5.769,0.275 1.923,0.074 3.846,0.144 5.769,0.169 1.923,0.025 3.846,0.047 5.769,-0.02 1.923,-0.067 3.847,-0.182 5.77,-0.382 1.923,-0.201 3.846,-0.5 5.769,-0.822 1.923,-0.321 3.846,-0.748 5.769,-1.106 1.923,-0.358 3.846,-0.765 5.769,-1.042 1.923,-0.277 3.846,-0.509 5.77,-0.619 1.923,-0.11 3.846,-0.1 5.769,-0.042 1.923,0.059 4.807,0.327 5.769,0.393"
         id="path44" /><path
         d="m 16,206.062 c 0.962,-0.029 3.846,-0.149 5.769,-0.176 1.923,-0.027 3.846,-0.011 5.769,0.016 1.924,0.028 3.847,0.126 5.77,0.149 1.923,0.023 3.846,0.073 5.769,-0.01 1.923,-0.082 3.846,-0.229 5.769,-0.486 1.923,-0.256 3.846,-0.651 5.769,-1.051 1.923,-0.399 3.847,-0.937 5.77,-1.346 1.923,-0.409 3.846,-0.866 5.769,-1.109 1.923,-0.242 3.846,-0.396 5.769,-0.346 1.923,0.049 3.846,0.295 5.769,0.643 1.923,0.348 3.846,0.91 5.77,1.445 1.923,0.535 3.846,1.207 5.769,1.765 1.923,0.558 3.846,1.131 5.769,1.584 1.923,0.453 3.846,0.825 5.769,1.134 1.923,0.309 3.846,0.515 5.769,0.721 1.924,0.207 3.847,0.354 5.77,0.517 1.923,0.163 3.846,0.327 5.769,0.46 1.923,0.133 3.846,0.286 5.769,0.338 1.923,0.053 3.846,0.081 5.769,-0.024 1.923,-0.105 3.847,-0.31 5.77,-0.606 1.923,-0.296 3.846,-0.74 5.769,-1.172 1.923,-0.432 3.846,-0.986 5.769,-1.42 1.923,-0.434 3.846,-0.893 5.769,-1.183 1.923,-0.291 3.846,-0.49 5.77,-0.56 1.923,-0.07 3.846,0.02 5.769,0.14 1.923,0.119 4.807,0.481 5.769,0.577"
         id="path45" /><path
         d="m 16,210.688 c 0.962,-0.051 3.846,-0.245 5.769,-0.301 1.923,-0.055 3.846,-0.045 5.769,-0.031 1.924,0.015 3.847,0.109 5.77,0.119 1.923,0.01 3.846,0.037 5.769,-0.057 1.923,-0.095 3.846,-0.267 5.769,-0.511 1.923,-0.244 3.846,-0.619 5.769,-0.953 1.923,-0.334 3.847,-0.768 5.77,-1.049 1.923,-0.28 3.846,-0.554 5.769,-0.633 1.923,-0.08 3.846,-0.031 5.769,0.157 1.923,0.187 3.846,0.566 5.769,0.967 1.923,0.402 3.846,0.962 5.77,1.442 1.923,0.48 3.846,1.015 5.769,1.437 1.923,0.422 3.846,0.792 5.769,1.094 1.923,0.303 3.846,0.507 5.769,0.719 1.923,0.212 3.846,0.36 5.769,0.554 1.924,0.194 3.847,0.396 5.77,0.609 1.923,0.214 3.846,0.483 5.769,0.673 1.923,0.191 3.846,0.41 5.769,0.471 1.923,0.061 3.846,0.06 5.769,-0.105 1.923,-0.165 3.847,-0.486 5.77,-0.887 1.923,-0.4 3.846,-0.986 5.769,-1.514 1.923,-0.529 3.846,-1.177 5.769,-1.656 1.923,-0.478 3.846,-0.944 5.769,-1.217 1.923,-0.272 3.846,-0.405 5.77,-0.417 1.923,-0.012 3.846,0.166 5.769,0.348 1.923,0.181 4.807,0.617 5.769,0.741"
         id="path46" /><path
         d="m 16,215.312 c 0.962,-0.063 3.846,-0.305 5.769,-0.382 1.923,-0.077 3.846,-0.077 5.769,-0.079 1.924,-0.002 3.847,0.069 5.77,0.065 1.923,-0.004 3.846,-0.003 5.769,-0.089 1.923,-0.085 3.846,-0.245 5.769,-0.426 1.923,-0.181 3.846,-0.459 5.769,-0.659 1.923,-0.2 3.847,-0.444 5.77,-0.542 1.923,-0.098 3.846,-0.139 5.769,-0.047 1.923,0.091 3.846,0.32 5.769,0.596 1.923,0.276 3.846,0.694 5.769,1.057 1.923,0.363 3.846,0.795 5.77,1.12 1.923,0.325 3.846,0.617 5.769,0.83 1.923,0.214 3.846,0.33 5.769,0.451 1.923,0.121 3.846,0.161 5.769,0.277 1.923,0.115 3.846,0.229 5.769,0.415 1.924,0.186 3.847,0.45 5.77,0.703 1.923,0.253 3.846,0.597 5.769,0.816 1.923,0.219 3.846,0.455 5.769,0.496 1.923,0.042 3.846,-0.019 5.769,-0.246 1.923,-0.226 3.847,-0.646 5.77,-1.11 1.923,-0.465 3.846,-1.122 5.769,-1.676 1.923,-0.554 3.846,-1.199 5.769,-1.649 1.923,-0.45 3.846,-0.844 5.769,-1.051 1.923,-0.207 3.846,-0.245 5.77,-0.191 1.923,0.055 3.846,0.298 5.769,0.518 1.923,0.22 4.807,0.67 5.769,0.803"
         id="path47" /><path
         d="m 16,219.938 c 0.962,-0.068 3.846,-0.32 5.769,-0.408 1.923,-0.088 3.846,-0.1 5.769,-0.118 1.924,-0.018 3.847,0.021 5.77,0.009 1.923,-0.012 3.846,-0.027 5.769,-0.081 1.923,-0.054 3.846,-0.16 5.769,-0.241 1.923,-0.082 3.846,-0.209 5.769,-0.247 1.923,-0.038 3.847,-0.06 5.77,0.021 1.923,0.08 3.846,0.247 5.769,0.462 1.923,0.215 3.846,0.542 5.769,0.826 1.923,0.284 3.846,0.635 5.769,0.879 1.923,0.243 3.846,0.463 5.77,0.583 1.923,0.12 3.846,0.139 5.769,0.138 1.923,-0.002 3.846,-0.111 5.769,-0.147 1.923,-0.035 3.846,-0.108 5.769,-0.064 1.923,0.045 3.846,0.152 5.769,0.331 1.924,0.18 3.847,0.484 5.77,0.747 1.923,0.262 3.846,0.623 5.769,0.829 1.923,0.206 3.846,0.403 5.769,0.406 1.923,0.002 3.846,-0.129 5.769,-0.393 1.923,-0.264 3.847,-0.728 5.77,-1.191 1.923,-0.463 3.846,-1.091 5.769,-1.589 1.923,-0.498 3.846,-1.041 5.769,-1.398 1.923,-0.356 3.846,-0.623 5.769,-0.739 1.923,-0.117 3.846,-0.065 5.77,0.041 1.923,0.106 3.846,0.37 5.769,0.594 1.923,0.224 4.807,0.625 5.769,0.75"
         id="path48" /><path
         d="m 16,224.562 c 0.962,-0.067 3.846,-0.312 5.769,-0.404 1.923,-0.092 3.846,-0.12 5.769,-0.149 1.924,-0.03 3.847,-0.02 5.77,-0.03 1.923,-0.01 3.846,-0.025 5.769,-0.033 1.923,-0.007 3.846,-0.038 5.769,-0.011 1.923,0.026 3.846,0.057 5.769,0.169 1.923,0.112 3.847,0.283 5.77,0.501 1.923,0.218 3.846,0.529 5.769,0.806 1.923,0.278 3.846,0.624 5.769,0.859 1.923,0.236 3.846,0.46 5.769,0.555 1.923,0.096 3.846,0.091 5.77,0.019 1.923,-0.073 3.846,-0.284 5.769,-0.456 1.923,-0.172 3.846,-0.438 5.769,-0.577 1.923,-0.14 3.846,-0.267 5.769,-0.26 1.923,0.008 3.846,0.129 5.769,0.305 1.924,0.175 3.847,0.498 5.77,0.749 1.923,0.251 3.846,0.588 5.769,0.757 1.923,0.17 3.846,0.302 5.769,0.26 1.923,-0.041 3.846,-0.232 5.769,-0.512 1.923,-0.279 3.847,-0.742 5.77,-1.165 1.923,-0.423 3.846,-0.968 5.769,-1.373 1.923,-0.406 3.846,-0.813 5.769,-1.059 1.923,-0.246 3.846,-0.384 5.769,-0.417 1.923,-0.032 3.846,0.086 5.77,0.223 1.923,0.137 3.846,0.391 5.769,0.598 1.923,0.207 4.807,0.538 5.769,0.645"
         id="path49" /><path
         d="m 16,229.188 c 0.962,-0.064 3.846,-0.289 5.769,-0.381 1.923,-0.092 3.846,-0.134 5.769,-0.17 1.924,-0.036 3.847,-0.046 5.77,-0.045 1.923,0.002 3.846,0.005 5.769,0.053 1.923,0.048 3.846,0.106 5.769,0.235 1.923,0.129 3.846,0.307 5.769,0.539 1.923,0.232 3.847,0.549 5.77,0.853 1.923,0.303 3.846,0.685 5.769,0.968 1.923,0.282 3.846,0.578 5.769,0.725 1.923,0.147 3.846,0.214 5.769,0.158 1.923,-0.056 3.846,-0.262 5.77,-0.494 1.923,-0.231 3.846,-0.608 5.769,-0.896 1.923,-0.288 3.846,-0.636 5.769,-0.831 1.923,-0.195 3.846,-0.33 5.769,-0.337 1.923,-0.007 3.846,0.131 5.769,0.296 1.924,0.165 3.847,0.475 5.77,0.693 1.923,0.218 3.846,0.496 5.769,0.615 1.923,0.118 3.846,0.176 5.769,0.097 1.923,-0.078 3.846,-0.303 5.769,-0.57 1.923,-0.267 3.847,-0.682 5.77,-1.03 1.923,-0.348 3.846,-0.768 5.769,-1.057 1.923,-0.289 3.846,-0.545 5.769,-0.679 1.923,-0.133 3.846,-0.159 5.769,-0.124 1.923,0.035 3.846,0.188 5.77,0.333 1.923,0.145 3.846,0.363 5.769,0.538 1.923,0.175 4.807,0.425 5.769,0.511"
         id="path50" /><path
         d="m 16,233.812 c 0.962,-0.057 3.846,-0.256 5.769,-0.343 1.923,-0.086 3.846,-0.141 5.769,-0.176 1.924,-0.034 3.847,-0.054 5.77,-0.032 1.923,0.021 3.846,0.057 5.769,0.161 1.923,0.105 3.846,0.251 5.769,0.465 1.923,0.215 3.846,0.509 5.769,0.821 1.923,0.312 3.847,0.716 5.77,1.051 1.923,0.335 3.846,0.719 5.769,0.959 1.923,0.239 3.846,0.439 5.769,0.479 1.923,0.04 3.846,-0.052 5.769,-0.24 1.923,-0.189 3.846,-0.548 5.77,-0.889 1.923,-0.341 3.846,-0.811 5.769,-1.158 1.923,-0.347 3.846,-0.715 5.769,-0.926 1.923,-0.21 3.846,-0.325 5.769,-0.336 1.923,-0.01 3.846,0.133 5.769,0.275 1.924,0.142 3.847,0.409 5.77,0.577 1.923,0.167 3.846,0.365 5.769,0.429 1.923,0.064 3.846,0.054 5.769,-0.045 1.923,-0.099 3.846,-0.324 5.769,-0.548 1.923,-0.225 3.847,-0.551 5.77,-0.798 1.923,-0.247 3.846,-0.519 5.769,-0.684 1.923,-0.165 3.846,-0.274 5.769,-0.308 1.923,-0.034 3.846,0.027 5.769,0.106 1.923,0.079 3.846,0.236 5.77,0.369 1.923,0.133 3.846,0.296 5.769,0.428 1.923,0.132 4.807,0.303 5.769,0.363"
         id="path51" /><path
         d="m 16,238.438 c 0.962,-0.05 3.846,-0.22 5.769,-0.297 1.923,-0.078 3.846,-0.139 5.769,-0.166 1.924,-0.028 3.847,-0.044 5.77,0.002 1.923,0.046 3.846,0.122 5.769,0.276 1.923,0.153 3.846,0.374 5.769,0.647 1.923,0.272 3.846,0.641 5.769,0.987 1.923,0.347 3.847,0.775 5.77,1.093 1.923,0.318 3.846,0.649 5.769,0.816 1.923,0.166 3.846,0.248 5.769,0.183 1.923,-0.065 3.846,-0.29 5.769,-0.574 1.923,-0.284 3.846,-0.735 5.77,-1.131 1.923,-0.396 3.846,-0.888 5.769,-1.245 1.923,-0.357 3.846,-0.697 5.769,-0.895 1.923,-0.199 3.846,-0.285 5.769,-0.298 1.923,-0.012 3.846,0.116 5.769,0.222 1.924,0.106 3.847,0.305 5.77,0.413 1.923,0.108 3.846,0.22 5.769,0.236 1.923,0.017 3.846,-0.04 5.769,-0.136 1.923,-0.097 3.846,-0.287 5.769,-0.444 1.923,-0.158 3.847,-0.368 5.77,-0.502 1.923,-0.134 3.846,-0.253 5.769,-0.302 1.923,-0.049 3.846,-0.034 5.769,0.01 1.923,0.044 3.846,0.156 5.769,0.255 1.923,0.098 3.846,0.232 5.77,0.337 1.923,0.105 3.846,0.206 5.769,0.292 1.923,0.085 4.807,0.184 5.769,0.221"
         id="path52" /><path
         d="m 16,243.062 c 0.962,-0.04 3.846,-0.181 5.769,-0.245 1.923,-0.065 3.846,-0.126 5.769,-0.141 1.924,-0.015 3.847,-0.019 5.77,0.052 1.923,0.071 3.846,0.185 5.769,0.374 1.923,0.188 3.846,0.459 5.769,0.757 1.923,0.298 3.846,0.692 5.769,1.03 1.923,0.339 3.847,0.736 5.77,1.001 1.923,0.265 3.846,0.507 5.769,0.588 1.923,0.082 3.846,0.05 5.769,-0.1 1.923,-0.15 3.846,-0.463 5.769,-0.797 1.923,-0.335 3.846,-0.812 5.77,-1.212 1.923,-0.399 3.846,-0.857 5.769,-1.186 1.923,-0.328 3.846,-0.613 5.769,-0.786 1.923,-0.174 3.846,-0.235 5.769,-0.254 1.923,-0.02 3.846,0.074 5.769,0.135 1.924,0.06 3.847,0.179 5.77,0.229 1.923,0.05 3.846,0.085 5.769,0.069 1.923,-0.015 3.846,-0.089 5.769,-0.162 1.923,-0.072 3.846,-0.197 5.769,-0.273 1.923,-0.076 3.847,-0.158 5.77,-0.182 1.923,-0.024 3.846,-0.009 5.769,0.039 1.923,0.047 3.846,0.15 5.769,0.244 1.923,0.094 3.846,0.223 5.769,0.319 1.923,0.095 3.846,0.188 5.77,0.256 1.923,0.067 3.846,0.108 5.769,0.149 1.923,0.041 4.807,0.08 5.769,0.096"
         id="path53" /><path
         d="m 16,247.688 c 0.962,-0.033 3.846,-0.144 5.769,-0.193 1.923,-0.049 3.846,-0.104 5.769,-0.104 1.924,0.001 3.847,0.015 5.77,0.105 1.923,0.091 3.846,0.234 5.769,0.437 1.923,0.203 3.846,0.492 5.769,0.782 1.923,0.291 3.846,0.664 5.769,0.959 1.923,0.296 3.847,0.623 5.77,0.814 1.923,0.191 3.846,0.331 5.769,0.333 1.923,0.002 3.846,-0.12 5.769,-0.322 1.923,-0.202 3.846,-0.55 5.769,-0.89 1.923,-0.339 3.846,-0.785 5.77,-1.147 1.923,-0.362 3.846,-0.747 5.769,-1.024 1.923,-0.278 3.846,-0.498 5.769,-0.643 1.923,-0.145 3.846,-0.193 5.769,-0.227 1.923,-0.033 3.846,0.012 5.769,0.026 1.924,0.013 3.847,0.054 5.77,0.056 1.923,0.001 3.846,-0.018 5.769,-0.046 1.923,-0.028 3.846,-0.091 5.769,-0.122 1.923,-0.032 3.846,-0.074 5.769,-0.066 1.923,0.008 3.847,0.043 5.77,0.112 1.923,0.069 3.846,0.189 5.769,0.302 1.923,0.114 3.846,0.266 5.769,0.381 1.923,0.115 3.846,0.232 5.769,0.308 1.923,0.076 3.846,0.12 5.77,0.149 1.923,0.028 3.846,0.017 5.769,0.02 1.923,0.004 4.807,0 5.769,0"
         id="path54" /></g><rect
       style="fill:#c0894a;fill-opacity:1;stroke:#bf984a;stroke-width:0;stroke-opacity:0"
       id="rect10"
       width="2270.3689"
       height="1024.9371"
       x="4359.8403"
       y="10260.716"
       rx="250"
       inkscape:label="output_box" /></g><g
     id="F.SilkS"
     inkscape:groupmode="layer"
     inkscape:label="F.SilkS"
     style="display:inline"><text
       xml:space="preserve"
       style="font-style:normal;font-variant:normal;font-weight:500;font-stretch:normal;font-size:211.667px;font-family:'Ioskeley Mono';-inkscape-font-specification:'Ioskeley Mono Medium';text-align:center;writing-mode:lr-tb;direction:ltr;text-anchor:middle;fill:#ffffff;fill-opacity:1;stroke:#bf984a;stroke-width:0;stroke-opacity:0"
       x="5314.5"
       y="12315.108"
       id="text2-93-1-3-2-2-7"
       inkscape:label="SynthuxAcademy"><tspan
         sodipodi:role="line"
         style="font-size:211.667px;text-align:center;text-anchor:middle;stroke-width:0"
         x="5314.5"
         y="12315.108"
         id="tspan3-1">Synthux Academy</tspan></text><text
       xml:space="preserve"
       style="font-style:normal;font-variant:normal;font-weight:500;font-stretch:normal;font-size:211.667px;font-family:'Ioskeley Mono';-inkscape-font-specification:'Ioskeley Mono Medium';text-align:center;writing-mode:lr-tb;direction:ltr;text-anchor:middle;fill:#ffffff;fill-opacity:1;stroke:#bf984a;stroke-width:0;stroke-opacity:0"
       x="1771.4999"
       y="12205.253"
       id="text2-93-1-3-2-2"
       inkscape:label="VoltageFoundry"><tspan
         sodipodi:role="line"
         id="tspan2-44-8-5-4-2"
         style="font-size:211.667px;text-align:center;text-anchor:middle;stroke-width:0"
         x="1771.4999"
         y="12205.253">Voltage Foundry</tspan><tspan
         sodipodi:role="line"
         style="font-size:211.667px;text-align:center;text-anchor:middle;stroke-width:0"
         x="1771.4999"
         y="12469.837"
         id="tspan3">Modular</tspan></text><text
       xml:space="preserve"
       style="font-style:normal;font-variant:normal;font-weight:600;font-stretch:normal;font-size:141.111px;font-family:'Ioskeley Mono';-inkscape-font-specification:'Ioskeley Mono Semi-Bold';text-align:center;writing-mode:lr-tb;direction:ltr;text-anchor:middle;fill:#ffffff;fill-opacity:1;stroke:#bf984a;stroke-width:0;stroke-opacity:0"
       x="5096.5952"
       y="7131.1621"
       id="text2-5-4"
       inkscape:label="Pot9_Shift"><tspan
         sodipodi:role="line"
         id="tspan2-0-3"
         style="font-style:normal;font-variant:normal;font-weight:600;font-stretch:normal;font-size:141.111px;font-family:'Ioskeley Mono';-inkscape-font-specification:'Ioskeley Mono Semi-Bold';text-align:center;text-anchor:middle;stroke-width:0"
         x="5096.5952"
         y="7131.1621">⇡HPF</tspan></text><text
       xml:space="preserve"
       style="font-style:normal;font-variant:normal;font-weight:600;font-stretch:normal;font-size:211.667px;font-family:'Ioskeley Mono';-inkscape-font-specification:'Ioskeley Mono Semi-Bold';text-align:center;writing-mode:lr-tb;direction:ltr;text-anchor:middle;fill:#ffffff;fill-opacity:1;stroke:#bf984a;stroke-width:0;stroke-opacity:0"
       x="5107.8491"
       y="6985.1123"
       id="text2-5"
       inkscape:label="Pot9"><tspan
         sodipodi:role="line"
         id="tspan2-0"
         style="font-style:normal;font-variant:normal;font-weight:600;font-stretch:normal;font-size:211.667px;font-family:'Ioskeley Mono';-inkscape-font-specification:'Ioskeley Mono Semi-Bold';text-align:center;text-anchor:middle;stroke-width:0"
         x="5107.8491"
         y="6985.1123">FB LPF</tspan></text><text
       xml:space="preserve"
       style="font-style:normal;font-variant:normal;font-weight:600;font-stretch:normal;font-size:211.667px;font-family:'Ioskeley Mono';-inkscape-font-specification:'Ioskeley Mono Semi-Bold';text-align:center;writing-mode:lr-tb;direction:ltr;text-anchor:middle;fill:#ffffff;fill-opacity:1;stroke:#bf984a;stroke-width:0;stroke-opacity:0"
       x="3542.9998"
       y="5406.0308"
       id="text2-41"
       inkscape:label="Pot8"><tspan
         sodipodi:role="line"
         id="tspan2-13"
         style="font-style:normal;font-variant:normal;font-weight:600;font-stretch:normal;font-size:211.667px;font-family:'Ioskeley Mono';-inkscape-font-specification:'Ioskeley Mono Semi-Bold';text-align:center;text-anchor:middle;stroke-width:0"
         x="3542.9998"
         y="5406.0308">Dry/Wet</tspan></text><text
       xml:space="preserve"
       style="font-style:normal;font-variant:normal;font-weight:600;font-stretch:normal;font-size:141.111px;font-family:'Ioskeley Mono';-inkscape-font-specification:'Ioskeley Mono Semi-Bold';text-align:center;writing-mode:lr-tb;direction:ltr;text-anchor:middle;fill:#ffffff;fill-opacity:1;stroke:#bf984a;stroke-width:0;stroke-opacity:0"
       x="3528.1833"
       y="5589.209"
       id="text2-41-4"
       inkscape:label="Pot8_Shift"><tspan
         sodipodi:role="line"
         id="tspan2-13-1"
         style="font-style:normal;font-variant:normal;font-weight:600;font-stretch:normal;font-size:141.111px;font-family:'Ioskeley Mono';-inkscape-font-specification:'Ioskeley Mono Semi-Bold';text-align:center;text-anchor:middle;stroke-width:0"
         x="3528.1833"
         y="5589.209">⇡Vol</tspan></text><text
       xml:space="preserve"
       style="font-style:normal;font-variant:normal;font-weight:600;font-stretch:normal;font-size:211.667px;font-family:'Ioskeley Mono';-inkscape-font-specification:'Ioskeley Mono Semi-Bold';text-align:center;writing-mode:lr-tb;direction:ltr;text-anchor:middle;fill:#ffffff;fill-opacity:1;stroke:#bf984a;stroke-width:0;stroke-opacity:0"
       x="1963.5597"
       y="6970.2959"
       id="text2-77"
       inkscape:label="Pot7"><tspan
         sodipodi:role="line"
         id="tspan2-93"
         style="font-style:normal;font-variant:normal;font-weight:600;font-stretch:normal;font-size:211.667px;font-family:'Ioskeley Mono';-inkscape-font-specification:'Ioskeley Mono Semi-Bold';text-align:center;text-anchor:middle;stroke-width:0"
         x="1963.5597"
         y="6970.2959">Decay</tspan></text><text
       xml:space="preserve"
       style="font-style:normal;font-variant:normal;font-weight:600;font-stretch:normal;font-size:211.667px;font-family:'Ioskeley Mono';-inkscape-font-specification:'Ioskeley Mono Semi-Bold';text-align:center;writing-mode:lr-tb;direction:ltr;text-anchor:middle;fill:#ffffff;fill-opacity:1;stroke:#bf984a;stroke-width:0;stroke-opacity:0"
       x="5692.144"
       y="4910.0654"
       id="text2-4"
       inkscape:label="Pot6"><tspan
         sodipodi:role="line"
         id="tspan2-3"
         style="font-style:normal;font-variant:normal;font-weight:600;font-stretch:normal;font-size:211.667px;font-family:'Ioskeley Mono';-inkscape-font-specification:'Ioskeley Mono Semi-Bold';text-align:center;text-anchor:middle;stroke-width:0"
         x="5692.144"
         y="4910.0654">Feedback</tspan></text><text
       xml:space="preserve"
       style="font-style:normal;font-variant:normal;font-weight:600;font-stretch:normal;font-size:211.667px;font-family:'Ioskeley Mono';-inkscape-font-specification:'Ioskeley Mono Semi-Bold';text-align:center;writing-mode:lr-tb;direction:ltr;text-anchor:middle;fill:#ffffff;fill-opacity:1;stroke:#bf984a;stroke-width:0;stroke-opacity:0"
       x="3538.3879"
       y="3758.5081"
       id="text2-18"
       inkscape:label="Pot5"><tspan
         sodipodi:role="line"
         id="tspan2-9"
         style="font-style:normal;font-variant:normal;font-weight:600;font-stretch:normal;font-size:211.667px;font-family:'Ioskeley Mono';-inkscape-font-specification:'Ioskeley Mono Semi-Bold';text-align:center;text-anchor:middle;stroke-width:0"
         x="3538.3879"
         y="3758.5081">Time</tspan></text><text
       xml:space="preserve"
       style="font-style:normal;font-variant:normal;font-weight:600;font-stretch:normal;font-size:211.667px;font-family:'Ioskeley Mono';-inkscape-font-specification:'Ioskeley Mono Semi-Bold';text-align:center;writing-mode:lr-tb;direction:ltr;text-anchor:middle;fill:#ffffff;fill-opacity:1;stroke:#bf984a;stroke-width:0;stroke-opacity:0"
       x="1379.6587"
       y="4870.0654"
       id="text2-1"
       inkscape:label="Pot4"><tspan
         sodipodi:role="line"
         id="tspan2-6"
         style="font-style:normal;font-variant:normal;font-weight:600;font-stretch:normal;font-size:211.667px;font-family:'Ioskeley Mono';-inkscape-font-specification:'Ioskeley Mono Semi-Bold';text-align:center;text-anchor:middle;stroke-width:0"
         x="1379.6587"
         y="4870.0654">Send</tspan></text><text
       xml:space="preserve"
       style="font-style:normal;font-variant:normal;font-weight:600;font-stretch:normal;font-size:246.944px;font-family:'Ioskeley Mono';-inkscape-font-specification:'Ioskeley Mono Semi-Bold';text-align:center;writing-mode:lr-tb;direction:ltr;text-anchor:middle;fill:#ffffff;fill-opacity:1;stroke:#bf984a;stroke-width:0;stroke-opacity:0"
       x="5694.0488"
       y="3013.0898"
       id="text2-6"
       inkscape:label="Pot3"><tspan
         sodipodi:role="line"
         id="tspan2-14"
         style="font-style:normal;font-variant:normal;font-weight:600;font-stretch:normal;font-size:246.944px;font-family:'Ioskeley Mono';-inkscape-font-specification:'Ioskeley Mono Semi-Bold';text-align:center;text-anchor:middle;stroke-width:0"
         x="5694.0488"
         y="3013.0898">FB Gain</tspan></text><text
       xml:space="preserve"
       style="font-style:normal;font-variant:normal;font-weight:600;font-stretch:normal;font-size:141.111px;font-family:'Ioskeley Mono';-inkscape-font-specification:'Ioskeley Mono Semi-Bold';text-align:center;writing-mode:lr-tb;direction:ltr;text-anchor:middle;display:inline;fill:#ffffff;fill-opacity:1;stroke:#bf984a;stroke-width:0;stroke-opacity:0"
       x="5693.9956"
       y="3156.5693"
       id="text2-41-4-2"
       inkscape:label="Pot3_Shift"><tspan
         sodipodi:role="line"
         id="tspan2-13-1-4"
         style="font-style:normal;font-variant:normal;font-weight:600;font-stretch:normal;font-size:141.111px;font-family:'Ioskeley Mono';-inkscape-font-specification:'Ioskeley Mono Semi-Bold';text-align:center;text-anchor:middle;stroke-width:0"
         x="5693.9956"
         y="3156.5693">⇡Exc. Lvl.</tspan></text><text
       xml:space="preserve"
       style="font-style:normal;font-variant:normal;font-weight:600;font-stretch:normal;font-size:246.944px;font-family:'Ioskeley Mono';-inkscape-font-specification:'Ioskeley Mono Semi-Bold';text-align:center;writing-mode:lr-tb;direction:ltr;text-anchor:middle;fill:#ffffff;fill-opacity:1;stroke:#bf984a;stroke-width:0;stroke-opacity:0"
       x="3536.8003"
       y="1800.1285"
       id="text2-7"
       inkscape:label="Pot2"><tspan
         sodipodi:role="line"
         id="tspan2-1"
         style="font-style:normal;font-variant:normal;font-weight:600;font-stretch:normal;font-size:246.944px;font-family:'Ioskeley Mono';-inkscape-font-specification:'Ioskeley Mono Semi-Bold';text-align:center;text-anchor:middle;stroke-width:0"
         x="3536.8003"
         y="1800.1285">Body</tspan></text><text
       xml:space="preserve"
       style="font-style:normal;font-variant:normal;font-weight:600;font-stretch:normal;font-size:246.944px;font-family:'Ioskeley Mono';-inkscape-font-specification:'Ioskeley Mono Semi-Bold';text-align:center;writing-mode:lr-tb;direction:ltr;text-anchor:middle;fill:#ffffff;fill-opacity:1;stroke:#bf984a;stroke-width:0;stroke-opacity:0"
       x="1376.3779"
       y="3013.0898"
       id="text2"
       inkscape:label="Pot1"><tspan
         sodipodi:role="line"
         id="tspan2"
         style="font-style:normal;font-variant:normal;font-weight:600;font-stretch:normal;font-size:246.944px;font-family:'Ioskeley Mono';-inkscape-font-specification:'Ioskeley Mono Semi-Bold';text-align:center;text-anchor:middle;stroke-width:0"
         x="1376.3779"
         y="3013.0898">Pitch</tspan></text><text
       xml:space="preserve"
       style="font-style:normal;font-variant:normal;font-weight:600;font-stretch:normal;font-size:211.667px;font-family:'Ioskeley Mono';-inkscape-font-specification:'Ioskeley Mono Semi-Bold';text-align:center;writing-mode:lr-tb;direction:ltr;text-anchor:middle;fill:#ffffff;fill-opacity:1;stroke:#bf984a;stroke-width:0;stroke-opacity:0"
       x="4859.0581"
       y="8401.6592"
       id="text2-2"
       inkscape:label="ShiftSW"><tspan
         sodipodi:role="line"
         id="tspan2-4"
         style="font-style:normal;font-variant:normal;font-weight:600;font-stretch:normal;font-size:211.667px;font-family:'Ioskeley Mono';-inkscape-font-specification:'Ioskeley Mono Semi-Bold';text-align:center;text-anchor:middle;stroke-width:0"
         x="4859.0581"
         y="8401.6592">Shift</tspan></text><text
       xml:space="preserve"
       style="font-style:normal;font-variant:normal;font-weight:600;font-stretch:normal;font-size:211.667px;font-family:'Ioskeley Mono';-inkscape-font-specification:'Ioskeley Mono Semi-Bold';text-align:center;writing-mode:lr-tb;direction:ltr;text-anchor:middle;fill:#ffffff;fill-opacity:1;stroke:#bf984a;stroke-width:0;stroke-opacity:0"
       x="2215.3105"
       y="8401.5537"
       id="text2-9"
       inkscape:label="ModeSW"><tspan
         sodipodi:role="line"
         id="tspan2-00"
         style="font-style:normal;font-variant:normal;font-weight:600;font-stretch:normal;font-size:211.667px;font-family:'Ioskeley Mono';-inkscape-font-specification:'Ioskeley Mono Semi-Bold';text-align:center;text-anchor:middle;stroke-width:0"
         x="2215.3105"
         y="8401.5537">Mode</tspan></text><text
       xml:space="preserve"
       style="font-style:normal;font-variant:normal;font-weight:500;font-stretch:normal;font-size:211.667px;font-family:'Ioskeley Mono';-inkscape-font-specification:'Ioskeley Mono Medium';text-align:center;writing-mode:lr-tb;direction:ltr;text-anchor:middle;fill:#ffffff;fill-opacity:1;stroke:#bf984a;stroke-width:0;stroke-opacity:0"
       x="6132.8535"
       y="11464.17"
       id="text2-93"
       inkscape:label="OutR"><tspan
         sodipodi:role="line"
         id="tspan2-44"
         style="font-size:211.667px;text-align:center;text-anchor:middle;stroke-width:0"
         x="6132.8535"
         y="11464.17">Out R</tspan></text><text
       xml:space="preserve"
       style="font-style:normal;font-variant:normal;font-weight:500;font-stretch:normal;font-size:211.667px;font-family:'Ioskeley Mono';-inkscape-font-specification:'Ioskeley Mono Medium';text-align:center;writing-mode:lr-tb;direction:ltr;text-anchor:middle;fill:#ffffff;fill-opacity:1;stroke:#bf984a;stroke-width:0;stroke-opacity:0"
       x="4856.5615"
       y="11464.17"
       id="text2-93-1"
       inkscape:label="OutL"><tspan
         sodipodi:role="line"
         id="tspan2-44-8"
         style="font-size:211.667px;text-align:center;text-anchor:middle;stroke-width:0"
         x="4856.5615"
         y="11464.17">Out L</tspan></text><text
       xml:space="preserve"
       style="font-style:normal;font-variant:normal;font-weight:500;font-stretch:normal;font-size:211.667px;font-family:'Ioskeley Mono';-inkscape-font-specification:'Ioskeley Mono Medium';text-align:center;writing-mode:lr-tb;direction:ltr;text-anchor:middle;fill:#ffffff;fill-opacity:1;stroke:#bf984a;stroke-width:0;stroke-opacity:0"
       x="3533.1538"
       y="11463.323"
       id="text2-93-1-3-4"
       inkscape:label="CV4"><tspan
         sodipodi:role="line"
         id="tspan2-44-8-5-1"
         style="font-size:211.667px;text-align:center;text-anchor:middle;stroke-width:0"
         x="3533.1538"
         y="11463.323">Rev. Mix</tspan></text><text
       xml:space="preserve"
       style="font-style:normal;font-variant:normal;font-weight:500;font-stretch:normal;font-size:211.667px;font-family:'Ioskeley Mono';-inkscape-font-specification:'Ioskeley Mono Medium';text-align:center;writing-mode:lr-tb;direction:ltr;text-anchor:middle;fill:#ffffff;fill-opacity:1;stroke:#bf984a;stroke-width:0;stroke-opacity:0"
       x="2210.8027"
       y="11463.323"
       id="text2-93-1-3-2"
       inkscape:label="CV3"><tspan
         sodipodi:role="line"
         id="tspan2-44-8-5-4"
         style="font-size:211.667px;text-align:center;text-anchor:middle;stroke-width:0"
         x="2210.8027"
         y="11463.323">Delay Snd</tspan></text><text
       xml:space="preserve"
       style="font-style:normal;font-variant:normal;font-weight:500;font-stretch:normal;font-size:211.667px;font-family:'Ioskeley Mono';-inkscape-font-specification:'Ioskeley Mono Medium';text-align:center;writing-mode:lr-tb;direction:ltr;text-anchor:middle;fill:#ffffff;fill-opacity:1;stroke:#bf984a;stroke-width:0;stroke-opacity:0"
       x="6139.1494"
       y="10006.482"
       id="text2-93-1-3-7"
       inkscape:label="CV2"><tspan
         sodipodi:role="line"
         id="tspan2-44-8-5-6"
         style="font-size:211.667px;text-align:center;text-anchor:middle;stroke-width:0"
         x="6139.1494"
         y="10006.482">FB Gain</tspan></text><text
       xml:space="preserve"
       style="font-style:normal;font-variant:normal;font-weight:500;font-stretch:normal;font-size:211.667px;font-family:'Ioskeley Mono';-inkscape-font-specification:'Ioskeley Mono Medium';text-align:center;writing-mode:lr-tb;direction:ltr;text-anchor:middle;fill:#ffffff;fill-opacity:1;stroke:#bf984a;stroke-width:0;stroke-opacity:0"
       x="4864.5498"
       y="9984.1523"
       id="text2-93-1-3-9"
       inkscape:label="CV1"><tspan
         sodipodi:role="line"
         id="tspan2-44-8-5-54"
         style="font-size:211.667px;text-align:center;text-anchor:middle;stroke-width:0"
         x="4864.5498"
         y="9984.1523">Body</tspan></text><text
       xml:space="preserve"
       style="font-style:normal;font-variant:normal;font-weight:500;font-stretch:normal;font-size:211.667px;font-family:'Ioskeley Mono';-inkscape-font-specification:'Ioskeley Mono Medium';text-align:center;writing-mode:lr-tb;direction:ltr;text-anchor:middle;fill:#ffffff;fill-opacity:1;stroke:#bf984a;stroke-width:0;stroke-opacity:0"
       x="933.45294"
       y="11463.323"
       id="text2-93-1-3"
       inkscape:label="FM"><tspan
         sodipodi:role="line"
         id="tspan2-44-8-5"
         style="font-size:211.667px;text-align:center;text-anchor:middle;stroke-width:0"
         x="933.45294"
         y="11463.323">Exc In</tspan></text><rect
       style="display:inline;fill:#ffffff;stroke:#bf984a;stroke-width:0;stroke-opacity:0"
       id="rect2"
       width="896.51715"
       height="201.25758"
       x="3090.561"
       y="9832.4648"
       rx="40"
       inkscape:label="MIDI_Box" /><text
       xml:space="preserve"
       style="font-style:normal;font-variant:normal;font-weight:500;font-stretch:normal;font-size:211.667px;font-family:'Ioskeley Mono';-inkscape-font-specification:'Ioskeley Mono Medium';text-align:center;writing-mode:lr-tb;direction:ltr;text-anchor:middle;fill:#000000;fill-opacity:1;stroke:#bf984a;stroke-width:0;stroke-opacity:0"
       x="3541.5393"
       y="10002.144"
       id="text2-93-1-7"
       inkscape:label="MIDI"><tspan
         sodipodi:role="line"
         id="tspan2-44-8-8"
         style="font-size:211.667px;text-align:center;text-anchor:middle;stroke-width:0;fill:#000000"
         x="3541.5393"
         y="10002.144">MIDI In</tspan></text><text
       xml:space="preserve"
       style="font-style:normal;font-variant:normal;font-weight:500;font-stretch:normal;font-size:211.667px;font-family:'Ioskeley Mono';-inkscape-font-specification:'Ioskeley Mono Medium';text-align:center;writing-mode:lr-tb;direction:ltr;text-anchor:middle;fill:#ffffff;fill-opacity:1;stroke:#bf984a;stroke-width:0;stroke-opacity:0"
       x="2220.8035"
       y="10001.298"
       id="text2-93-1-3-1"
       inkscape:label="Gate"><tspan
         sodipodi:role="line"
         id="tspan2-44-8-5-5"
         style="font-size:211.667px;text-align:center;text-anchor:middle;stroke-width:0"
         x="2220.8035"
         y="10001.298">Gate</tspan></text><text
       xml:space="preserve"
       style="font-style:normal;font-variant:normal;font-weight:500;font-stretch:normal;font-size:211.667px;font-family:'Ioskeley Mono';-inkscape-font-specification:'Ioskeley Mono Medium';text-align:center;writing-mode:lr-tb;direction:ltr;text-anchor:middle;fill:#ffffff;fill-opacity:1;stroke:#bf984a;stroke-width:0;stroke-opacity:0"
       x="943.45355"
       y="10001.298"
       id="text2-93-1-3-3"
       inkscape:label="VOct"><tspan
         sodipodi:role="line"
         id="tspan2-44-8-5-2"
         style="font-size:211.667px;text-align:center;text-anchor:middle;stroke-width:0"
         x="943.45355"
         y="10001.298">Pitch</tspan></text><text
       xml:space="preserve"
       id="text1-2"
       style="font-style:normal;font-variant:normal;font-weight:bold;font-stretch:normal;font-size:13.3333px;font-family:'Ioskeley Mono';-inkscape-font-specification:'Ioskeley Mono Bold';text-align:start;writing-mode:lr-tb;direction:ltr;white-space:pre;shape-inside:url(#rect1-4);display:inline;fill:#ffffff;fill-opacity:1;stroke:#bf984a;stroke-width:0;stroke-dasharray:none;stroke-opacity:0"
       transform="matrix(26.458333,0,0,26.458333,-561.16904,301.69524)"
       inkscape:label="Subtitle"><tspan
         x="82.111328"
         y="35.530282"
         id="tspan1">Feedback Resonator</tspan></text><text
       xml:space="preserve"
       id="text1"
       style="font-style:normal;font-variant:normal;font-weight:bold;font-stretch:normal;font-size:24px;font-family:'Ioskeley Mono';-inkscape-font-specification:'Ioskeley Mono Bold';text-align:start;writing-mode:lr-tb;direction:ltr;white-space:pre;shape-inside:url(#rect1);display:inline;fill:#ffffff;fill-opacity:1;stroke:#bf984a;stroke-width:0;stroke-dasharray:none;stroke-opacity:0"
       transform="matrix(26.458333,0,0,26.458333,-349.08433,-376.93332)"
       inkscape:label="Name"><tspan
         x="82.111328"
         y="45.098312"
         id="tspan5"><tspan
           style="font-weight:500;-inkscape-font-specification:'Ioskeley Mono Medium'"
           id="tspan4">Audrey II</tspan></tspan></text><g
       id="g2"
       transform="matrix(2.0437451,0,0,2.0437451,2899.6689,11626.756)"
       inkscape:label="VFMLogo"
       style="fill:#ffffff;fill-opacity:1"><path
         id="path1-7"
         d="m 13.748047,24.640625 c 22.451099,41.612363 1.170598,4.913334 292.830073,535.937495 0,0 1.4637,2.66293 6.5918,2.70313 5.19422,-0.002 4.89549,-0.86318 7.10547,-3.07617 C 405.4678,405.76511 567.01527,107.86381 610.91992,25.662109 l -138.51758,0.08008 C 470.21297,29.801158 404.11189,159.37571 399,168.70703 c 11.32896,-2.16459 18.74608,-3.02479 30.73047,-4.11328 -0.55718,3.36912 -21.96924,80.52102 -25.55274,95.70898 C 413.08044,243.36455 500.55652,75.47059 504.81836,68.578125 514.82862,68.538219 522.08548,69.179483 533,69.707031 468.63614,190.7956 378.60418,350.43288 316,476.70703 c -0.44242,1.50826 -1.5,1.12695 -1.5,1.12695 0,0 -0.9168,0.30087 -1.5,-1.12695 C 224.8909,316.71172 157.19552,191.6465 94,70.707031 c 9.77121,-0.269628 19.31157,-0.601119 29,-1 1.41018,2.826737 90.83756,158.946239 95.55273,167.267579 0.9508,-2.60755 18.49839,-50.57116 21.52344,-58.52344 -6.41423,-11.02062 -82.55714,-144.827938 -87.38476,-153.775389 -8.18615,-0.02711 -91.243736,0.0187 -138.943363,-0.03516 z M 59.722656,41.025391 A 11.100826,11.100826 0 0 1 70.824219,52.126953 11.100826,11.100826 0 0 1 59.722656,63.228516 11.100826,11.100826 0 0 1 48.621094,52.126953 11.100826,11.100826 0 0 1 59.722656,41.025391 Z m 80.000004,0 A 11.100826,11.100826 45 0 1 150.44531,49.253906 11.100826,11.100826 45 0 1 142.5957,62.849609 11.100826,11.100826 45 0 1 129,55 a 11.100826,11.100826 45 0 1 7.84961,-13.595703 11.100826,11.100826 45 0 1 2.87305,-0.378906 z m 346,0 a 11.100826,11.100826 0 0 1 11.10156,11.101562 11.100826,11.100826 0 0 1 -11.10156,11.101563 11.100826,11.100826 0 0 1 -11.10157,-11.101563 11.100826,11.100826 0 0 1 11.10157,-11.101562 z m 80,0 A 11.100826,11.100826 0 0 1 576.44531,49.253906 11.100826,11.100826 0 0 1 568.5957,62.849609 11.100826,11.100826 0 0 1 555,55 a 11.100826,11.100826 0 0 1 7.84961,-13.595703 11.100826,11.100826 0 0 1 2.87305,-0.378906 z M 96.101562,121.89844 A 11.100826,11.100826 0 0 1 107.20117,133 11.100826,11.100826 0 0 1 96.101562,144.10156 11.100826,11.100826 0 0 1 85,133 11.100826,11.100826 0 0 1 96.101562,121.89844 Z m 89.999998,0 a 11.100826,11.100826 0 0 1 10.72266,8.22851 11.100826,11.100826 0 0 1 -7.84961,13.59571 11.100826,11.100826 0 0 1 -13.5957,-7.84961 11.100826,11.100826 0 0 1 7.84961,-13.59571 11.100826,11.100826 0 0 1 2.87304,-0.3789 z m 254,0 A 11.100826,11.100826 0 0 1 451.20117,133 11.100826,11.100826 0 0 1 440.10156,144.10156 11.100826,11.100826 0 0 1 429,133 11.100826,11.100826 0 0 1 440.10156,121.89844 Z m 86,0 a 11.100826,11.100826 0 0 1 10.72266,8.22851 11.100826,11.100826 0 0 1 -7.84961,13.59571 11.100826,11.100826 0 0 1 -13.5957,-7.84961 11.100826,11.100826 0 0 1 7.84961,-13.59571 11.100826,11.100826 0 0 1 2.87304,-0.3789 z m -388.90039,71.09375 a 11.100826,11.100826 0 0 1 11.10156,11.09961 11.100826,11.100826 0 0 1 -11.10156,11.10156 11.100826,11.100826 0 0 1 -11.10156,-11.10156 11.100826,11.100826 0 0 1 11.10156,-11.09961 z m 350,0 a 11.100826,11.100826 0 0 1 11.10156,11.09961 11.100826,11.100826 0 0 1 -11.10156,11.10156 11.100826,11.100826 0 0 1 -11.10156,-11.10156 11.100826,11.100826 0 0 1 11.10156,-11.09961 z M 189.10156,290 a 11.100826,11.100826 0 0 1 11.09961,11.10156 11.100826,11.100826 0 0 1 -11.09961,11.09961 A 11.100826,11.100826 0 0 1 178,301.10156 11.100826,11.100826 0 0 1 189.10156,290 Z m 248,0 a 11.100826,11.100826 0 0 1 11.09961,11.10156 11.100826,11.100826 0 0 1 -11.09961,11.09961 A 11.100826,11.100826 0 0 1 426,301.10156 11.100826,11.100826 0 0 1 437.10156,290 Z m -211.9375,65.96094 a 11.100826,11.100826 0 0 1 11.09961,11.10156 11.100826,11.100826 0 0 1 -11.09961,11.10156 11.100826,11.100826 0 0 1 -11.10156,-11.10156 11.100826,11.100826 0 0 1 11.10156,-11.10156 z m 176,0 a 11.100826,11.100826 0 0 1 11.09961,11.10156 11.100826,11.100826 0 0 1 -11.09961,11.10156 11.100826,11.100826 0 0 1 -11.10156,-11.10156 11.100826,11.100826 0 0 1 11.10156,-11.10156 z m -133.26562,80.9375 A 11.100826,11.100826 0 0 1 279,448 11.100826,11.100826 0 0 1 267.89844,459.10156 11.100826,11.100826 0 0 1 256.79883,448 11.100826,11.100826 0 0 1 267.89844,436.89844 Z m 90,0 A 11.100826,11.100826 0 0 1 369,448 11.100826,11.100826 0 0 1 357.89844,459.10156 11.100826,11.100826 0 0 1 346.79883,448 11.100826,11.100826 0 0 1 357.89844,436.89844 Z m -45.56446,64.83789 a 11.100826,11.100826 0 0 1 11.10157,11.09961 11.100826,11.100826 0 0 1 -11.10157,11.10156 11.100826,11.100826 0 0 1 -11.0996,-11.10156 11.100826,11.100826 0 0 1 11.0996,-11.09961 z"
         style="fill:#ffffff;fill-opacity:1" /><path
         d="M 0,0 1.8009192,-0.02384387 C 1.9598951,10.227006 -3.0311161,153.39542 -3,159 1.0805363,158.29354 79.770193,136.5266 88,134 83.350016,145.38329 11.987762,313.28694 1,339 l -2.184573,-1.32176 C -0.63370939,329.88991 -2.4860651,210.2478 -3,203 -15.907961,206.63887 -70.687856,221.43942 -80,224 -55.179631,151.99815 -11.334,27.812563 0,0 Z"
         fill="#222629"
         transform="translate(317,52)"
         id="path2-6"
         sodipodi:nodetypes="ccccccccc"
         style="fill:#ffffff;fill-opacity:1" /><path
         d="m 429.91676,25.285097 c 0,0 11.99757,-0.07193 17.17163,0.120181 C 445.76685,28.948285 383.06774,148.30359 382,150.29436 c -3.28607,-0.144 -13.60483,0.18065 -15.88908,0.0936 3.03281,-5.85589 62.48829,-122.658601 63.80584,-125.102863 z m -1,14"
         fill="#2c2f31"
         id="path4"
         sodipodi:nodetypes="ccccc"
         style="fill:#ffffff;fill-opacity:1" /><path
         d="m 397,25.285098 c 0,0 11.99757,-0.07193 17.17163,0.120181 -1.32154,3.543007 -42.01195,79.322851 -43.07969,81.313621 -3.28607,-0.144 -13.60483,0.18065 -15.88908,0.0936 C 358.23567,100.95661 395.68245,27.72936 397,25.285098 Z"
         fill="#2c2f31"
         id="path4-6"
         sodipodi:nodetypes="ccccc"
         style="fill:#ffffff;fill-opacity:1" /><path
         d="m 199.5361,25.285098 c 0,0 -11.99757,-0.07193 -17.17163,0.120181 1.32154,3.543007 64.02065,122.898311 65.08839,124.889081 3.28607,-0.144 13.60483,0.18065 15.88908,0.0936 -3.03281,-5.85589 -62.48829,-122.6586 -63.80584,-125.102862 z m 1,14"
         fill="#2c2f31"
         id="path4-8"
         sodipodi:nodetypes="ccccc"
         style="fill:#ffffff;fill-opacity:1" /><path
         d="m 232.45286,25.285098 c 0,0 -11.99757,-0.07193 -17.17163,0.120181 1.32154,3.543007 42.01195,79.322851 43.07969,81.313621 3.28607,-0.144 13.60483,0.18065 15.88908,0.0936 -3.03281,-5.85589 -40.47959,-79.08314 -41.79714,-81.527402 z"
         fill="#2c2f31"
         id="path4-6-9"
         sodipodi:nodetypes="ccccc"
         style="fill:#ffffff;fill-opacity:1" /></g></g><g
     id="Drill"
     inkscape:groupmode="layer"
     inkscape:label="Drill"
     style="display:inline;fill:#ffffff;stroke:#9aa4b3;stroke-width:10" /><g
     inkscape:groupmode="layer"
     id="layer1"
     inkscape:label="components"
     transform="translate(120.35222,-1592.0584)"
     style="display:inline;fill:#ff0000;stroke-width:0;stroke-dasharray:none"
     sodipodi:insensitive="true"><circle
       cx="4992.0479"
       cy="7828.1934"
       r="360"
       id="circle1694-1"
       style="display:inline;fill:#ff0000;stroke:#000000;stroke-width:0;stroke-linecap:round;stroke-linejoin:round;stroke-dasharray:none;stroke-opacity:1"
       inkscape:label="pot9" /><circle
       cx="3422.6479"
       cy="7828.1934"
       r="360"
       id="circle1855-6"
       style="display:inline;fill:#ff0000;stroke:#000000;stroke-width:0;stroke-linecap:round;stroke-linejoin:round;stroke-dasharray:none;stroke-opacity:1"
       inkscape:label="pot8" /><circle
       cx="1843.2075"
       cy="7828.5127"
       r="360"
       id="circle1743-9"
       style="display:inline;fill:#ff0000;stroke:#000000;stroke-width:0;stroke-linecap:round;stroke-linejoin:round;stroke-dasharray:none;stroke-opacity:1"
       inkscape:label="pot7" /><circle
       cx="5578.2476"
       cy="5668.873"
       r="360"
       id="circle1656-3"
       style="display:inline;fill:#ff0000;stroke:#000000;stroke-width:0;stroke-linecap:round;stroke-linejoin:round;stroke-dasharray:none;stroke-opacity:1"
       inkscape:label="pot6" /><circle
       cx="3418.2473"
       cy="5998.8735"
       r="360"
       id="circle1791-6"
       style="display:inline;fill:#ff0000;stroke:#000000;stroke-width:0;stroke-linecap:round;stroke-linejoin:round;stroke-dasharray:none;stroke-opacity:1"
       inkscape:label="pot5" /><circle
       cx="1258.2482"
       cy="5628.873"
       r="360"
       id="circle1729-6"
       style="display:inline;fill:#ff0000;stroke:#000000;stroke-width:0;stroke-linecap:round;stroke-linejoin:round;stroke-dasharray:none;stroke-opacity:1"
       inkscape:label="pot4" /><circle
       cx="5578.2476"
       cy="3718.8733"
       r="360"
       id="circle1626-23"
       style="display:inline;fill:#ff0000;stroke:#000000;stroke-width:0;stroke-linecap:round;stroke-linejoin:round;stroke-dasharray:none;stroke-opacity:1"
       inkscape:label="pot3" /><circle
       cx="3418.2473"
       cy="4168.873"
       r="360"
       id="circle1829-2"
       style="display:inline;fill:#ff0000;stroke:#000000;stroke-width:0;stroke-linecap:round;stroke-linejoin:round;stroke-dasharray:none;stroke-opacity:1"
       inkscape:label="pot2" /><circle
       cx="1258.2482"
       cy="3718.8733"
       r="360"
       id="circle1761-7"
       style="display:inline;fill:#ff0000;stroke:#000000;stroke-width:0;stroke-linecap:round;stroke-linejoin:round;stroke-dasharray:none;stroke-opacity:1"
       inkscape:label="pot1" /><circle
       cx="5577.6479"
       cy="6863.6929"
       r="150"
       id="circle2436-4"
       style="display:inline;fill:#ff00ff;fill-opacity:1;stroke:#000000;stroke-width:0;stroke-linecap:round;stroke-linejoin:round;stroke-dasharray:none;stroke-opacity:1"
       inkscape:label="LED7" /><circle
       cx="6062.647"
       cy="8273.6934"
       r="150"
       id="circle2441-5"
       style="display:inline;fill:#ff00ff;fill-opacity:1;stroke:#000000;stroke-width:0;stroke-linecap:round;stroke-linejoin:round;stroke-dasharray:none;stroke-opacity:1"
       inkscape:label="LED6" /><circle
       cx="5592.6475"
       cy="9345.4434"
       r="150"
       id="circle2426-8"
       style="display:inline;fill:#ff00ff;fill-opacity:1;stroke:#000000;stroke-width:0;stroke-linecap:round;stroke-linejoin:round;stroke-dasharray:none;stroke-opacity:1"
       inkscape:label="LED5" /><circle
       cx="3422.6479"
       cy="9563.6924"
       r="150"
       id="circle2451-1"
       style="display:inline;fill:#ff00ff;fill-opacity:1;stroke:#000000;stroke-width:0;stroke-linecap:round;stroke-linejoin:round;stroke-dasharray:none;stroke-opacity:1"
       inkscape:label="LED4" /><circle
       cx="1237.6472"
       cy="9353.6924"
       r="150"
       id="circle2446-5"
       style="display:inline;fill:#ff00ff;fill-opacity:1;stroke:#000000;stroke-width:0;stroke-linecap:round;stroke-linejoin:round;stroke-dasharray:none;stroke-opacity:1"
       inkscape:label="LED3" /><circle
       cx="812.64728"
       cy="8273.6934"
       r="150"
       id="circle2431-2"
       style="display:inline;fill:#ff00ff;fill-opacity:1;stroke:#000000;stroke-width:0;stroke-linecap:round;stroke-linejoin:round;stroke-dasharray:none;stroke-opacity:1"
       inkscape:label="LED2" /><circle
       cx="1258.2482"
       cy="6868.6934"
       r="150"
       id="circle2456-7"
       style="display:inline;fill:#ff00ff;fill-opacity:1;stroke:#000000;stroke-width:0;stroke-linecap:round;stroke-linejoin:round;stroke-dasharray:none;stroke-opacity:1"
       inkscape:label="LED1" /><circle
       cx="2092.9473"
       cy="9339.6934"
       r="310"
       id="circle1743-9-7"
       style="display:inline;fill:#ff0000;stroke:#000000;stroke-width:0;stroke-linecap:round;stroke-linejoin:round;stroke-dasharray:none;stroke-opacity:1"
       inkscape:label="MODE_SW" /><circle
       cx="4737.6475"
       cy="9339.6934"
       r="310"
       id="circle1743-9-7-8"
       style="display:inline;fill:#ff0000;stroke:#000000;stroke-width:0;stroke-linecap:round;stroke-linejoin:round;stroke-dasharray:none;stroke-opacity:1"
       inkscape:label="SHIFT_SW" /><circle
       cx="6013.3477"
       cy="12365.243"
       r="310"
       id="circle1802-9"
       style="display:inline;fill:#0000ff;fill-opacity:1;stroke:#000000;stroke-width:0;stroke-linecap:round;stroke-linejoin:round;stroke-dasharray:none;stroke-opacity:1"
       inkscape:label="Out_R" /><circle
       cx="4735.9976"
       cy="12365.243"
       r="310"
       id="circle1683-3"
       style="display:inline;fill:#0000ff;fill-opacity:1;stroke:#000000;stroke-width:0;stroke-linecap:round;stroke-linejoin:round;stroke-dasharray:none;stroke-opacity:1"
       inkscape:label="Out_L" /><circle
       cx="3413.6482"
       cy="12365.243"
       r="310"
       id="circle1780-2"
       style="display:inline;fill:#00ff00;fill-opacity:1;stroke:#000000;stroke-width:0;stroke-linecap:round;stroke-linejoin:round;stroke-dasharray:none;stroke-opacity:1"
       inkscape:label="CV_4" /><circle
       cx="2091.2971"
       cy="12365.243"
       r="310"
       id="circle1818-8"
       style="display:inline;fill:#00ff00;fill-opacity:1;stroke:#000000;stroke-width:0;stroke-linecap:round;stroke-linejoin:round;stroke-dasharray:none;stroke-opacity:1"
       inkscape:label="CV_3" /><circle
       cx="6023.3481"
       cy="10963.423"
       r="310"
       id="circle1811-0"
       style="display:inline;fill:#00ff00;fill-opacity:1;stroke:#000000;stroke-width:0;stroke-linecap:round;stroke-linejoin:round;stroke-dasharray:none;stroke-opacity:1"
       inkscape:label="CV_2" /><circle
       cx="4745.9966"
       cy="10963.423"
       r="310"
       id="circle1841-5"
       style="display:inline;fill:#00ff00;fill-opacity:1;stroke:#000000;stroke-width:0;stroke-linecap:round;stroke-linejoin:round;stroke-dasharray:none;stroke-opacity:1"
       inkscape:label="CV_1" /><circle
       cx="813.94733"
       cy="12365.243"
       r="310"
       id="circle10"
       style="display:inline;fill:#00ff00;fill-opacity:1;stroke:#000000;stroke-width:0;stroke-linecap:round;stroke-linejoin:round;stroke-dasharray:none;stroke-opacity:1"
       inkscape:label="FM_In"
       transform="translate(1.0150766e-6)" /><circle
       cx="3418.647"
       cy="10963.423"
       r="310"
       id="circle1773-7"
       style="display:inline;fill:#00ff00;fill-opacity:1;stroke:#000000;stroke-width:0;stroke-linecap:round;stroke-linejoin:round;stroke-dasharray:none;stroke-opacity:1"
       inkscape:label="MIDI_IN" /><circle
       cx="2101.2979"
       cy="10963.423"
       r="310"
       id="circle1638-2"
       style="display:inline;fill:#00ff00;fill-opacity:1;stroke:#000000;stroke-width:0;stroke-linecap:round;stroke-linejoin:round;stroke-dasharray:none;stroke-opacity:1"
       inkscape:label="GateCV" /><circle
       cx="823.94794"
       cy="10963.423"
       r="310"
       id="circle1706-1"
       style="display:inline;fill:#00ff00;fill-opacity:1;stroke:#000000;stroke-width:0;stroke-linecap:round;stroke-linejoin:round;stroke-dasharray:none;stroke-opacity:1"
       inkscape:label="VOctCV" /></g><metadata
     id="metadata1"><rdf:RDF><cc:Work
         rdf:about=""><dc:title>Eurorack panel — 14HP × 128.5mm</dc:title></cc:Work></rdf:RDF></metadata></svg>
